<svg xmlns="http://www.w3.org/2000/svg" xmlns:svg="http://www.w3.org/2000/svg" xmlns:xlink="http://www.w3.org/1999/xlink" id="svg4434" width="128" height="128" version="1.1"><defs id="defs4436"><linearGradient id="linearGradient3924"><stop id="stop3926" offset="0" stop-color="#fff"/><stop id="stop3928" offset=".091" stop-color="#fff" stop-opacity=".235"/><stop id="stop3930" offset=".85" stop-color="#fff" stop-opacity=".157"/><stop id="stop3932" offset="1" stop-color="#fff" stop-opacity=".392"/></linearGradient><linearGradient id="linearGradient4097" x1="25.058" x2="25.058" y1="47.028" y2="39.999" gradientTransform="matrix(0.87434,0,0,1,2.664,0)" gradientUnits="userSpaceOnUse"><stop id="stop2895-0" offset="0" stop-color="#181818" stop-opacity="0"/><stop id="stop2897-2" offset=".5" stop-color="#181818"/><stop id="stop2899-6" offset="1" stop-color="#181818" stop-opacity="0"/></linearGradient><linearGradient id="linearGradient3811"><stop id="stop3813" offset="0"/><stop id="stop3815" offset="1" stop-opacity="0"/></linearGradient><linearGradient id="linearGradient8424"><stop id="stop8426" offset="0" stop-color="#fff"/><stop id="stop8428" offset="1" stop-color="#fff" stop-opacity="0"/></linearGradient><linearGradient id="linearGradient8537-6" x1="11" x2="23" y1="34" y2="34" gradientTransform="matrix(0,2.6364,-2.8462,0,144.77,40.182003)" gradientUnits="userSpaceOnUse"><stop id="stop3926-9-4-9-6-6" offset="0" stop-color="#fff"/><stop id="stop3928-9-8-6-5-4" offset=".063" stop-color="#fff" stop-opacity=".235"/><stop id="stop3930-3-5-1-7-9" offset=".951" stop-color="#fff" stop-opacity=".157"/><stop id="stop3932-8-0-4-8-5" offset="1" stop-color="#fff" stop-opacity=".392"/></linearGradient><linearGradient id="linearGradient6572-9-1-0" x1="633.24" x2="633.24" y1="225.82" y2="230.21" gradientTransform="matrix(10.617,0,0,9.1124,-6632.9,-1979.7)" gradientUnits="userSpaceOnUse"><stop id="stop6094-4" offset="0" stop-color="#fff"/><stop id="stop6096-8" offset=".1" stop-color="#fff" stop-opacity=".235"/><stop id="stop6098-7" offset=".975" stop-color="#fff" stop-opacity=".157"/><stop id="stop6100-1" offset="1" stop-color="#fff" stop-opacity=".392"/></linearGradient><linearGradient id="linearGradient5610-3-8-7" x1="8" x2="8" y1="15" y2="10" gradientTransform="matrix(8.3334,0,0,7.7738,22.333,5.779403)" gradientUnits="userSpaceOnUse"><stop id="stop5606-8-2-2" offset="0" stop-color="#ae6a37"/><stop id="stop5608-5-0-7" offset="1" stop-color="#d28e5b"/></linearGradient><linearGradient id="linearGradient5618-5-7-2" x1="9" x2="9" y1="10" y2="15" gradientTransform="matrix(8.3334,0,0,7.7738,22.333,5.779403)" gradientUnits="userSpaceOnUse"><stop id="stop5614-2-5-2" offset="0" stop-color="#492714" stop-opacity=".625"/><stop id="stop5616-0-2-6" offset="1" stop-color="#6a3f1f" stop-opacity=".77"/></linearGradient><linearGradient id="linearGradient8827-1" x1="20" x2="20" y1="27" y2="38" gradientTransform="matrix(2.6,0,0,2.3846,3.8,6.307703)" gradientUnits="userSpaceOnUse"><stop style="stop-color:#64baff;stop-opacity:1" id="stop8823-0" offset="0" stop-color="#6db0de"/><stop style="stop-color:#8cd5ff;stop-opacity:1" id="stop8825-6" offset="1" stop-color="#a4cae4"/></linearGradient><linearGradient id="linearGradient44483-1" x1="71" x2="71" y1="19" y2="39" gradientTransform="translate(0,3.0038318e-6)" gradientUnits="userSpaceOnUse" xlink:href="#linearGradient3924"/><linearGradient id="linearGradient44241-1" x1="9" x2="9" y1="21" y2="18" gradientTransform="matrix(3.1667,0,0,3.1667,59.083,-4.416697)" gradientUnits="userSpaceOnUse" xlink:href="#linearGradient8424"/><linearGradient id="linearGradient44245-7" x1="9" x2="9" y1="21" y2="18" gradientTransform="matrix(3.1667,0,0,3.1667,17.083,-4.416697)" gradientUnits="userSpaceOnUse" xlink:href="#linearGradient8424"/><linearGradient id="linearGradient918" x1="44.823" x2="44.823" y1="62.174" y2="17.1" gradientTransform="translate(0,3.0038318e-6)" gradientUnits="userSpaceOnUse" xlink:href="#linearGradient916"/><linearGradient id="linearGradient916"><stop id="stop912" offset="0" style="stop-color:#452981;stop-opacity:1"/><stop style="stop-color:#7239b3;stop-opacity:1" id="stop928" offset=".514"/><stop id="stop914" offset="1" style="stop-color:#7239b3;stop-opacity:1"/></linearGradient><radialGradient id="radialGradient8807-7" cx="12.5" cy="20" r="4.5" gradientTransform="matrix(1,0,0,0.66667,16,6.6667)" gradientUnits="userSpaceOnUse" xlink:href="#linearGradient3811"/><radialGradient id="radialGradient8809-5" cx="12.5" cy="20" r="4.5" gradientTransform="matrix(0.83333,0,0,0.55556,18.333,8.3889)" gradientUnits="userSpaceOnUse" xlink:href="#linearGradient3811"/><radialGradient id="radialGradient8797-9" cx="12.5" cy="20" r="4.5" gradientTransform="matrix(1,0,0,0.66667,8,6.6667)" gradientUnits="userSpaceOnUse" xlink:href="#linearGradient3811"/><radialGradient id="radialGradient8799-7" cx="12.5" cy="20" r="4.5" gradientTransform="matrix(0.83333,0,0,0.55556,10.333,8.3889)" gradientUnits="userSpaceOnUse" xlink:href="#linearGradient3811"/><radialGradient id="radialGradient8817-7" cx="12.5" cy="20" r="4.5" gradientTransform="matrix(1,0,0,0.66667,24,6.6667)" gradientUnits="userSpaceOnUse" xlink:href="#linearGradient3811"/><radialGradient id="radialGradient8819-6" cx="12.5" cy="20" r="4.5" gradientTransform="matrix(0.83333,0,0,0.55556,26.333,8.3889)" gradientUnits="userSpaceOnUse" xlink:href="#linearGradient3811"/><radialGradient id="radialGradient8781-7" cx="12.5" cy="20" r="4.5" gradientTransform="matrix(1,0,0,0.66667,0,6.6667)" gradientUnits="userSpaceOnUse" xlink:href="#linearGradient3811"/><radialGradient id="radialGradient8785-3" cx="12.5" cy="20" r="4.5" gradientTransform="matrix(0.83333,0,0,0.55556,2.3333,8.3889)" gradientUnits="userSpaceOnUse" xlink:href="#linearGradient3811"/><linearGradient id="linearGradient38386-6" x1="32" x2="32" y1="18" y2="33" gradientTransform="matrix(1.6727,0,0,2,10.636,6.000003)" gradientUnits="userSpaceOnUse" xlink:href="#linearGradient3811"/><linearGradient id="linearGradient4136-5" x1="24" x2="24" y1="5.591" y2="42.262" gradientTransform="matrix(2.4595,0,0,2.5676,5.973,8.3802035)" gradientUnits="userSpaceOnUse" xlink:href="#linearGradient3924"/><radialGradient id="radialGradient3044-6" cx="32" cy="4.342" r="27.5" gradientTransform="matrix(1.7133e-8,4.1073,-3.9361,1.7878e-8,82.09,-109.71)" gradientUnits="userSpaceOnUse"><stop id="stop4634-68-8-0-2-9-4-3" offset="0" stop-color="#fafafa"/><stop id="stop4636-8-21-7-1-4-8-9" offset="1" stop-color="#e1e1e1"/></radialGradient><radialGradient id="radialGradient4093-4" cx="4.993" cy="43.5" r="2.5" gradientTransform="matrix(2.0039,0,0,1.4,25.877,-17.4)" gradientUnits="userSpaceOnUse"><stop id="stop2883-0-8" offset="0" stop-color="#181818"/><stop id="stop2885-5-1" offset="1" stop-color="#181818" stop-opacity="0"/></radialGradient><radialGradient id="radialGradient4095-2" cx="4.993" cy="43.5" r="2.5" gradientTransform="matrix(2.0038,0,0,1.4,-21.419,-104.4)" gradientUnits="userSpaceOnUse"><stop id="stop2889-9-9" offset="0" stop-color="#181818"/><stop id="stop2891-4-3" offset="1" stop-color="#181818" stop-opacity="0"/></radialGradient><radialGradient id="radialGradient4432-8" cx="-4.029" cy="93.468" r="35.338" gradientTransform="matrix(1.5564,0,0,0.16979,72.27,102.13)" gradientUnits="userSpaceOnUse" xlink:href="#linearGradient3811"/><linearGradient id="linearGradient1945" x1="9" x2="9" y1="21" y2="18" gradientTransform="matrix(3.1667,0,0,3.1667,-3.9167,-4.416697)" gradientUnits="userSpaceOnUse" xlink:href="#linearGradient8424"/></defs><metadata id="metadata4439"/><path id="path3041" d="m 121,118 c -0.006,3.3133 -24.628,5.9988 -55,5.9988 -30.372,0 -54.994,-2.6856 -55,-5.9988 -0.0058,-3.3142 24.62,-6.0011 55,-6.0011 30.38,0 55.006,2.687 55,6.0011 z" style="color:#000;opacity:.2;fill:url(#radialGradient4432-8)"/><g id="g2036" transform="matrix(2.7,0,0,0.55556,1.2,94.891003)"><g id="g3712" transform="matrix(1.0526,0,0,1.2857,-1.2632,-13.429)" style="opacity:.4"><rect id="rect2801" width="5" height="7" x="35.889" y="40" style="fill:url(#radialGradient4093-4)"/><rect id="rect3696" width="5" height="7" x="-11.407" y="-47" transform="scale(-1)" style="fill:url(#radialGradient4095-2)"/><rect id="rect3700" width="24.482" height="7" x="11.407" y="40" style="fill:url(#linearGradient4097)"/></g></g><path id="rect5505-21-3" d="m 23.5,22.000004 c -2.493,0 -4.5,2.007 -4.5,4.5 V 113.5 c 0,2.493 2.007,4.5 4.5,4.5 h 83 c 2.493,0 4.5,-2.007 4.5,-4.5 V 26.500004 c 0,-2.493 -2.007,-4.5 -4.5,-4.5 z m 5,47.499999 h 39 V 100.5 h -39 z" style="color:#000;fill:url(#radialGradient3044-6)"/><rect id="rect6741-7" width="91" height="95" x="19.5" y="22.502" rx="4" ry="4" style="fill:none;stroke:url(#linearGradient4136-5);stroke-linecap:round;stroke-linejoin:round"/><rect id="rect5505-21-3-1" width="93" height="97" x="18.5" y="21.502" rx="5" ry="5" style="color:#000;opacity:.25;fill:none;stroke:#000"/><rect id="rect38378" width="92" height="32" x="19" y="40" rx="0" ry="0" style="opacity:.2;fill:url(#linearGradient38386-6)"/><g id="g11938" transform="matrix(2.6667,0,0,2.6781,-1.4959,2.010603)" style="fill-rule:evenodd;stroke-width:.37419999"><ellipse id="ellipse8803" cx="28.5" cy="20" rx="4.5" ry="3" style="color:#000;opacity:.2;isolation:auto;mix-blend-mode:normal;solid-color:#000;fill:url(#radialGradient8807-7);color-rendering:auto;image-rendering:auto;shape-rendering:auto"/><ellipse id="ellipse8805" cx="28.75" cy="19.5" rx="3.75" ry="2.5" style="color:#000;opacity:.2;isolation:auto;mix-blend-mode:normal;solid-color:#000;fill:url(#radialGradient8809-5);color-rendering:auto;image-rendering:auto;shape-rendering:auto"/><ellipse id="ellipse8793" cx="20.5" cy="20" rx="4.5" ry="3" style="color:#000;opacity:.2;isolation:auto;mix-blend-mode:normal;solid-color:#000;fill:url(#radialGradient8797-9);color-rendering:auto;image-rendering:auto;shape-rendering:auto"/><ellipse id="ellipse8795" cx="20.75" cy="19.5" rx="3.75" ry="2.5" style="color:#000;opacity:.2;isolation:auto;mix-blend-mode:normal;solid-color:#000;fill:url(#radialGradient8799-7);color-rendering:auto;image-rendering:auto;shape-rendering:auto"/><ellipse id="ellipse8813" cx="36.5" cy="20" rx="4.5" ry="3" style="color:#000;opacity:.2;isolation:auto;mix-blend-mode:normal;solid-color:#000;fill:url(#radialGradient8817-7);color-rendering:auto;image-rendering:auto;shape-rendering:auto"/><ellipse id="ellipse8815" cx="36.75" cy="19.5" rx="3.75" ry="2.5" style="color:#000;opacity:.2;isolation:auto;mix-blend-mode:normal;solid-color:#000;fill:url(#radialGradient8819-6);color-rendering:auto;image-rendering:auto;shape-rendering:auto"/><ellipse id="path8763" cx="12.5" cy="20" rx="4.5" ry="3" style="color:#000;opacity:.2;isolation:auto;mix-blend-mode:normal;solid-color:#000;fill:url(#radialGradient8781-7);color-rendering:auto;image-rendering:auto;shape-rendering:auto"/><ellipse id="ellipse8783" cx="12.75" cy="19.5" rx="3.75" ry="2.5" style="color:#000;opacity:.2;isolation:auto;mix-blend-mode:normal;solid-color:#000;fill:url(#radialGradient8785-3);color-rendering:auto;image-rendering:auto;shape-rendering:auto"/></g><path id="path44114" d="m 74.5,17.500003 1,33.5 c 0.17303,5.7964 4.701,10.5 10.5,10.5 5.799,0 10.5,-4.701 10.5,-10.5 v -11 l -2,-22.5 z" style="fill:#eaeaea;stroke:#000;stroke-linecap:round;stroke-linejoin:round;stroke-dashoffset:20;stroke-opacity:.36471001"/><path id="path44118" d="m 35.5,17.500003 -2,22.5 v 11 c 0,5.799 4.701,10.5 10.5,10.5 5.799,0 10.5,-4.701 10.5,-10.5 v -10.625 l 1,-22.875 z" style="fill:#eaeaea;stroke:#000;stroke-linecap:round;stroke-linejoin:round;stroke-dashoffset:20;stroke-opacity:.36471001"/><path id="path44122" d="m 113.5,23.500004 4,16.499999 v 11 c 0,5.799 -4.701,10.5 -10.5,10.5 -5.799,0 -10.5,-4.701 -10.5,-10.5 v -11 l -2,-22.5 H 107 c 0,0 5.4707,-0.2401 6.5,6.000001 z m -97,0 -4,16.499999 v 11 c 0,5.799 4.701,10.5 10.5,10.5 5.799,0 10.5,-4.701 10.5,-10.5 v -11 l 2,-22.5 H 23 c 0,0 -5.4817,-0.20725 -6.5,6.000001 z m 39,-6.000001 -1,22 v 11.5 c 0,5.799 4.701,10.5 10.5,10.5 5.799,0 10.5,-4.701 10.5,-10.5 v -11.5 l -1,-22 z" style="color:#000;clip-rule:nonzero;display:inline;overflow:visible;visibility:visible;opacity:1;isolation:auto;mix-blend-mode:normal;color-interpolation:sRGB;color-interpolation-filters:linearRGB;solid-color:#000;solid-opacity:1;fill:url(#linearGradient918);fill-opacity:1;fill-rule:nonzero;stroke:#05020d;stroke-width:1;stroke-linecap:round;stroke-linejoin:round;stroke-miterlimit:4;stroke-dasharray:none;stroke-dashoffset:20;stroke-opacity:.49803922;color-rendering:auto;image-rendering:auto;shape-rendering:auto;text-rendering:auto;enable-background:accumulate"/><circle id="path8406" cx="23" cy="51" r="9.5" style="color:#000;opacity:.4;isolation:auto;mix-blend-mode:normal;solid-color:#000;fill:none;stroke:url(#linearGradient1945);stroke-linecap:round;stroke-linejoin:round;stroke-opacity:.39216003;color-rendering:auto;image-rendering:auto;shape-rendering:auto"/><circle id="use44199" cx="44" cy="51" r="9.5" style="color:#000;isolation:auto;mix-blend-mode:normal;solid-color:#000;fill:none;stroke:url(#linearGradient44245-7);stroke-linecap:round;stroke-linejoin:round;stroke-opacity:.39216003;color-rendering:auto;image-rendering:auto;shape-rendering:auto"/><use id="use44201" width="100%" height="100%" x="0" y="0" transform="translate(42)" xlink:href="#path8406"/><circle id="use44203" cx="86" cy="51" r="9.5" style="color:#000;isolation:auto;mix-blend-mode:normal;solid-color:#000;fill:none;stroke:url(#linearGradient44241-1);stroke-linecap:round;stroke-linejoin:round;stroke-opacity:.39216003;color-rendering:auto;image-rendering:auto;shape-rendering:auto"/><use id="use44205" width="100%" height="100%" x="0" y="0" transform="translate(84)" xlink:href="#path8406"/><path id="path33635" d="m 17.5,23.500004 -3.9822,15.999999 h 102.99 l -4.0125,-15.999999 c 0,0 -0.5,-5.0625 -5.875,-5.125 l -83.62,0.125 c -4.75,0 -5.5,5 -5.5,5 z" style="opacity:.2;fill:#fff;fill-opacity:.54167002;fill-rule:evenodd;stroke:url(#linearGradient44483-1);stroke-width:1px;stroke-linejoin:round"/><path id="rect8516" d="m 28.5,69.500003 h 39 V 100.5 h -39 z" style="color:#000;opacity:.8;isolation:auto;mix-blend-mode:normal;solid-color:#000;fill:url(#linearGradient8827-1);fill-rule:evenodd;color-rendering:auto;image-rendering:auto;shape-rendering:auto"/><path id="path8523" d="m 35,81.000003 9,-9" style="opacity:.2;fill:none;stroke:#fff;stroke-width:1px;stroke-linecap:round"/><path id="path8525" d="m 40,97.000003 9,-9" style="opacity:.2;fill:none;stroke:#fff;stroke-width:1px;stroke-linecap:round"/><path id="path8527" d="m 49,81.000003 9,-9" style="opacity:.2;fill:none;stroke:#fff;stroke-width:1px;stroke-linecap:round"/><path id="rect5583-1" d="m 89,77.577003 c -6.9251,0 -12.5,5.4008 -12.5,11.861 V 118.5 h 25 V 89.438003 c 0,-6.46 -5.5748,-11.861 -12.5,-11.861 z" style="color:#000;fill:url(#linearGradient5610-3-8-7);stroke:url(#linearGradient5618-5-7-2);stroke-linejoin:round"/><path id="rect5583-1-7" d="m 88.948,78.549003 c -6.3566,0 -11.483,4.9939 -11.474,10.259 L 77.52522,117.5 h 22.948 l -0.0512,-28.691997 c -0.01,-5.4077 -5.1172,-10.259 -11.474,-10.259 z" style="color:#000;opacity:.5;fill:none;stroke:url(#linearGradient6572-9-1-0)"/><path id="path44423" d="m 99,101 c 0,2.6899 -4,2.6899 -4,0 0,-2.689897 4,-2.689897 4,0 z" style="color:#000;opacity:.2"/><path id="path5620-8" d="m 99,100 c 0,2.6899 -4,2.6899 -4,0 0,-2.689897 4,-2.689897 4,0 z" style="color:#000;fill:#620"/><path id="rect8529" d="m 66.5,70.500003 v 29 h -37 v -29 z" style="color:#000;isolation:auto;mix-blend-mode:normal;solid-color:#000;fill:none;stroke:url(#linearGradient8537-6);stroke-linecap:round;stroke-linejoin:round;stroke-opacity:.625;color-rendering:auto;image-rendering:auto;shape-rendering:auto"/><path id="path8539" d="M 28.507,101.5 H 67.493" style="opacity:.4;fill:none;stroke:#fff;stroke-width:1px;stroke-linecap:round"/><path id="path8592" d="m 56,90.000003 9,-9" style="opacity:.2;fill:none;stroke:#fff;stroke-width:1px;stroke-linecap:round"/><path id="path11916" d="m 28.5,69.500003 h 39 V 100.5 h -39 z" style="color:#000;isolation:auto;mix-blend-mode:normal;solid-color:#000;fill:none;stroke:#64baff;stroke-linecap:round;stroke-linejoin:round;color-rendering:auto;image-rendering:auto;shape-rendering:auto"/><path id="path44485" d="m 13.518,39.500003 h 102.99" style="opacity:.1;fill:none;stroke:#fff;stroke-width:1px"/><path style="color:#000;opacity:.2;isolation:auto;mix-blend-mode:normal;solid-color:#000;fill:none;stroke:#000;stroke-linecap:round;stroke-linejoin:round;stroke-opacity:1;color-rendering:auto;image-rendering:auto;shape-rendering:auto" id="path3432" d="m 28.5,69.500003 h 39 V 100.5 h -39 z"/></svg>