<svg xmlns="http://www.w3.org/2000/svg" xmlns:svg="http://www.w3.org/2000/svg" xmlns:xlink="http://www.w3.org/1999/xlink" id="svg4389" width="16" height="16" version="1.1"><defs id="defs4391"><linearGradient id="linearGradient3847" x1="-95.838" x2="-95.838" y1="54.2" y2="5.176" gradientTransform="matrix(.29544 0 0 .27634 38.688 .69081)" gradientUnits="userSpaceOnUse"><stop id="stop3106-5-4-3-5-0-1-61-9-2-7-3-3" offset="0" stop-opacity=".322"/><stop id="stop3108-4-3-7-8-2-4-01-9-9-0-6-4" offset="1" stop-opacity=".278"/></linearGradient><linearGradient id="linearGradient3850" x1="24" x2="24" y1="5" y2="43" gradientTransform="matrix(.35135 0 0 .29730 -.43244 1.8649)" gradientUnits="userSpaceOnUse"><stop id="stop3926-3" offset="0" stop-color="#fff"/><stop id="stop3928-91" offset=".063" stop-color="#fff" stop-opacity=".235"/><stop id="stop3930-6" offset=".951" stop-color="#fff" stop-opacity=".157"/><stop id="stop3932-6" offset="1" stop-color="#fff" stop-opacity=".392"/></linearGradient><linearGradient id="linearGradient8537" x1="11" x2="23" y1="34" y2="34" gradientTransform="matrix(0 .36364 -.38462 0 19.077 3.2814)" gradientUnits="userSpaceOnUse"><stop id="stop3926-9-4-9-6" offset="0" stop-color="#fff"/><stop id="stop3928-9-8-6-5" offset=".156" stop-color="#fff" stop-opacity=".235"/><stop id="stop3930-3-5-1-7" offset=".844" stop-color="#fff" stop-opacity=".157"/><stop id="stop3932-8-0-4-8" offset="1" stop-color="#fff" stop-opacity=".392"/></linearGradient><linearGradient id="linearGradient8827" x1="20" x2="20" y1="27" y2="38" gradientTransform="matrix(.46667 0 0 .46154 -1.9337 -5.7676)" gradientUnits="userSpaceOnUse"><stop style="stop-color:#64baff;stop-opacity:1" id="stop8823" offset="0" stop-color="#6db0de"/><stop style="stop-color:#8cd5ff;stop-opacity:1" id="stop8825" offset="1" stop-color="#a4cae4"/></linearGradient><radialGradient id="radialGradient18966" cx="12" cy="6.268" r="9.631" gradientTransform="matrix(-1.3772 7.3828e-8 -8.991e-8 -1.5392 24.894 14.766)" gradientUnits="userSpaceOnUse"><stop id="stop4634-68-8-0-2-9-1" offset="0" stop-color="#fafafa"/><stop id="stop4636-8-21-7-1-4-9" offset="1" stop-color="#e1e1e1"/></radialGradient><linearGradient id="linearGradient5610-3" x1="8" x2="8" y1="15" y2="10" gradientTransform="translate(4 1)" gradientUnits="userSpaceOnUse"><stop id="stop5606-8-2" offset="0" stop-color="#ae6a37"/><stop id="stop5608-5-0" offset="1" stop-color="#d28e5b"/></linearGradient><linearGradient id="linearGradient5618-5" x1="9" x2="9" y1="10" y2="15" gradientTransform="translate(4 1)" gradientUnits="userSpaceOnUse"><stop id="stop5614-2" offset="0" stop-color="#793b19"/><stop id="stop5616-0" offset="1" stop-color="#a76331"/></linearGradient><linearGradient id="linearGradient918" x1="25.88" x2="25.88" y1="23.255" y2="17.552" gradientTransform="translate(-12,-16.999007)" gradientUnits="userSpaceOnUse" xlink:href="#linearGradient916"/><linearGradient id="linearGradient916"><stop id="stop912" offset="0" style="stop-color:#452981;stop-opacity:1"/><stop style="stop-color:#7239b3;stop-opacity:1" id="stop928" offset=".571"/><stop id="stop914" offset="1" style="stop-color:#7239b3;stop-opacity:1"/></linearGradient></defs><metadata id="metadata4394"/><rect id="rect18958" width="14" height="12" x="1" y="3" fill="url(#radialGradient18966)" rx=".966" ry=".893"/><rect id="rect5505-21-3-2" width="15" height="13" x=".5" y="2.463" fill="none" style="color:#000" stroke="url(#linearGradient3847)" opacity=".8" rx="1.5" ry="1.5"/><rect id="rect6741" width="13" height="11" x="1.5" y="3.5" fill="none" stroke="url(#linearGradient3850)" stroke-linecap="round" stroke-linejoin="round" rx=".5" ry=".5"/><path id="path8539" fill="none" stroke="#fff" stroke-linecap="round" stroke-width="1" d="m2.4762 13.463h6.0465" opacity=".4"/><path id="rect8516" fill="url(#linearGradient8827)" fill-rule="evenodd" d="m2.4998 8.4625h5.9999v4.0007h-5.9999z" opacity=".9" style="color-rendering:auto;color:#000;isolation:auto;mix-blend-mode:normal;shape-rendering:auto;solid-color:#000;image-rendering:auto"/><path id="path11916" fill="none" stroke="#6490b1" stroke-linecap="round" stroke-linejoin="round" d="m2.4998 8.4995h5.9995v3.9637h-5.9995z" style="color-rendering:auto;color:#000;isolation:auto;mix-blend-mode:normal;shape-rendering:auto;solid-color:#000;image-rendering:auto;stroke:#64baff"/><path id="rect8529" fill="none" stroke="url(#linearGradient8537)" stroke-linecap="round" stroke-linejoin="round" stroke-opacity=".625" d="m7.4992 9.4995v1.9637h-3.9995v-1.9637z" style="color-rendering:auto;color:#000;isolation:auto;mix-blend-mode:normal;shape-rendering:auto;solid-color:#000;image-rendering:auto"/><rect id="rect19003" width="14" height="2" x="1" y="1" fill="#fff" opacity=".1" rx="0" ry="0"/><path id="rect5583" fill="url(#linearGradient5610-3)" stroke="url(#linearGradient5618-5)" stroke-linejoin="round" d="m12 10.5c-0.831 0-1.5 0.669-1.5 1.5v3.5h3v-3.5c0-0.831-0.669-1.5-1.5-1.5z" style="color:#000"/><path id="path5620" fill="#620" d="m14 13.5c0 0.66667-1 0.66667-1 0s1-0.66667 1 0z" style="color:#000"/><path id="path6110" fill="#fff" d="m12 11c-0.55228 0-1 0.44772-1 1h2c0-0.55228-0.44772-1-1-1z" opacity=".3" style="color:#000"/><path style="color:#000;clip-rule:nonzero;display:inline;overflow:visible;visibility:visible;opacity:1;isolation:auto;mix-blend-mode:normal;color-interpolation:sRGB;color-interpolation-filters:linearRGB;solid-color:#000;solid-opacity:1;fill:url(#linearGradient918);fill-opacity:1;fill-rule:nonzero;stroke:#05020d;stroke-width:1;stroke-linecap:round;stroke-linejoin:round;stroke-miterlimit:4;stroke-dasharray:none;stroke-dashoffset:20;stroke-opacity:.49803922;filter-blend-mode:normal;filter-gaussianBlur-deviation:0;color-rendering:auto;image-rendering:auto;shape-rendering:auto;text-rendering:auto;enable-background:accumulate;font-variant-east_asian:normal;vector-effect:none" id="path8361" d="M 1.2636719 0.52734375 C 1.2636719 0.52734375 0.51368188 0.52789875 0.51367188 1.2929688 L 0.51367188 3.3964844 L 0.51367188 4.9648438 C 0.51367188 4.9648438 0.50712387 6.4960938 2.0136719 6.4960938 C 3.5070719 6.4960938 3.5136719 4.9648437 3.5136719 4.9648438 L 3.5136719 3.3964844 L 3.5136719 0.52734375 L 1.2636719 0.52734375 z M 6.5136719 0.52734375 L 6.5136719 3.3964844 L 6.5136719 4.9648438 C 6.5136719 4.9648438 6.5202719 6.4960938 8.0136719 6.4960938 C 9.5202119 6.4960937 9.5136719 4.9648438 9.5136719 4.9648438 L 9.5136719 0.52734375 C 9.5136719 0.52734375 7.5967719 0.53742275 6.5136719 0.52734375 z M 12.544922 0.52734375 L 12.544922 3.3964844 L 12.544922 4.9648438 C 12.544922 4.9648437 12.551522 6.4960938 14.044922 6.4960938 C 15.551522 6.4960938 15.544922 4.9648438 15.544922 4.9648438 L 15.544922 3.3964844 L 15.544922 1.2929688 C 15.544912 0.52789875 14.794922 0.52734375 14.794922 0.52734375 L 12.544922 0.52734375 z"/><path id="use28666" fill="#eaeaea" fill-rule="evenodd" stroke="#000" stroke-opacity=".435" stroke-width="1" d="m6.5132 0.52762v4.4369s0.00654 1.5314-1.5 1.5314c-1.4934 0-1.5-1.5314-1.5-1.5314v-1.5682l-0.0000025-2.8687c1.0831 0.010079 2.9999 0 2.9999 0z"/><path id="path28686" fill="#eaeaea" fill-rule="evenodd" stroke="#000" stroke-opacity=".435" stroke-width="1" d="m12.513 0.52762v4.4369s0.0065 1.5314-1.5 1.5314c-1.4934 0-1.5-1.5314-1.5-1.5314v-1.5682l-0.0000025-2.8687c1.0831 0.010079 2.9999 0 2.9999 0z"/><path id="path19001" fill-rule="evenodd" stroke="#fff" stroke-width="1" d="m1 3.5372h14" opacity=".1"/><path id="path28688" fill-rule="evenodd" stroke="#000" stroke-width="1" d="m1 6.5372h14" opacity=".1"/><path id="path13627" fill-rule="evenodd" stroke="#000" stroke-width="1" d="m1 7.5372h14" opacity=".02"/><path style="color-rendering:auto;color:#000;isolation:auto;mix-blend-mode:normal;shape-rendering:auto;solid-color:#000;image-rendering:auto;stroke:#000;stroke-opacity:1;opacity:.2" id="path3377" fill="none" stroke="#6490b1" stroke-linecap="round" stroke-linejoin="round" d="m2.4998 8.4995h5.9995v3.9637h-5.9995z"/></svg>