<svg xmlns="http://www.w3.org/2000/svg" xmlns:svg="http://www.w3.org/2000/svg" xmlns:xlink="http://www.w3.org/1999/xlink" id="svg4715" width="32" height="32" version="1.1"><defs id="defs4717"><linearGradient id="linearGradient943"><stop style="stop-color:#452981;stop-opacity:1" id="stop937" offset="0"/><stop id="stop939" offset=".571" style="stop-color:#7239b3;stop-opacity:1"/><stop style="stop-color:#7239b3;stop-opacity:1" id="stop941" offset="1"/></linearGradient><radialGradient id="radialGradient3163" cx="4.993" cy="43.5" r="2.5" gradientTransform="matrix(2.0038 0 0 1.4 23.917 -17.4)" gradientUnits="userSpaceOnUse"><stop id="stop2883" offset="0" stop-color="#181818"/><stop id="stop2885" offset="1" stop-color="#181818" stop-opacity="0"/></radialGradient><radialGradient id="radialGradient3165" cx="4.993" cy="43.5" r="2.5" gradientTransform="matrix(2.0038 0 0 1.4 -21.369 -104.4)" gradientUnits="userSpaceOnUse"><stop id="stop2889" offset="0" stop-color="#181818"/><stop id="stop2891" offset="1" stop-color="#181818" stop-opacity="0"/></radialGradient><linearGradient id="linearGradient3167" x1="25.058" x2="25.058" y1="47.028" y2="39.999" gradientTransform="matrix(.80614 0 0 1 3.2957 0)" gradientUnits="userSpaceOnUse"><stop id="stop2895" offset="0" stop-color="#181818" stop-opacity="0"/><stop id="stop2897" offset=".5" stop-color="#181818"/><stop id="stop2899" offset="1" stop-color="#181818" stop-opacity="0"/></linearGradient><linearGradient id="linearGradient3024" x1="30.643" x2="30.643" y1="3.916" y2="30.093" gradientTransform="matrix(.92 0 0 .92 -23.851 2.36)" gradientUnits="userSpaceOnUse"><stop id="stop4551" offset="0" stop-opacity=".272"/><stop id="stop4553" offset="1" stop-opacity=".368"/></linearGradient><linearGradient id="linearGradient3027" x1="24" x2="24" y1="5" y2="43" gradientTransform="matrix(.56757 0 0 .56757 2.3784 4.3784)" gradientUnits="userSpaceOnUse"><stop id="stop3926" offset="0" stop-color="#fff"/><stop id="stop3928" offset=".063" stop-color="#fff" stop-opacity=".235"/><stop id="stop3930" offset=".951" stop-color="#fff" stop-opacity=".157"/><stop id="stop3932" offset="1" stop-color="#fff" stop-opacity=".392"/></linearGradient><radialGradient id="radialGradient3035" cx="20.931" cy="8.45" r="20" gradientTransform="matrix(1.0686e-8 1.3183 -1.3597 -2.4288e-8 27.49 -38.553)" gradientUnits="userSpaceOnUse"><stop id="stop4036" offset="0" stop-color="#f4f4f4"/><stop id="stop4040" offset="1" stop-color="#d0d0d0"/></radialGradient><linearGradient id="linearGradient8827" x1="21.22" x2="20" y1="23.33" y2="38" gradientTransform="matrix(.46667 0 0 .46154 3.0973 6.2692)" gradientUnits="userSpaceOnUse"><stop style="stop-color:#64baff;stop-opacity:1" id="stop8823" offset="0" stop-color="#6db0de"/><stop style="stop-color:#8cd5ff;stop-opacity:1" id="stop8825" offset="1" stop-color="#a4cae4"/></linearGradient><linearGradient id="linearGradient8537" x1="7.375" x2="23" y1="34.08" y2="34" gradientTransform="matrix(0 .36364 -.38462 0 24.108 15.318)" gradientUnits="userSpaceOnUse"><stop id="stop3926-9-4-9-6" offset="0" stop-color="#fff"/><stop id="stop3928-9-8-6-5" offset=".156" stop-color="#fff" stop-opacity=".235"/><stop id="stop3930-3-5-1-7" offset=".844" stop-color="#fff" stop-opacity=".157"/><stop id="stop3932-8-0-4-8" offset="1" stop-color="#fff" stop-opacity=".392"/></linearGradient><linearGradient id="linearGradient5610-3-8" x1="8" x2="8" y1="15" y2="10" gradientTransform="matrix(1.8163 0 0 1.6784 1.694 -2.9511)" gradientUnits="userSpaceOnUse"><stop id="stop5606-8-2" offset="0" stop-color="#ae6a37"/><stop id="stop5608-5-0" offset="1" stop-color="#d28e5b"/></linearGradient><linearGradient id="linearGradient5618-5-7" x1="9" x2="9" y1="10" y2="15" gradientTransform="matrix(1.8163 0 0 1.6784 1.694 -2.9511)" gradientUnits="userSpaceOnUse"><stop id="stop5614-2-5" offset="0" stop-color="#492714" stop-opacity=".625"/><stop id="stop5616-0-2" offset="1" stop-color="#6a3f1f" stop-opacity=".77"/></linearGradient><linearGradient id="linearGradient6572-9-1" x1="633.14" x2="633.14" y1="225.3" y2="230.46" gradientTransform="matrix(1.6814 0 0 1.6205 -1048.4 -352.26)" gradientUnits="userSpaceOnUse"><stop id="stop6094" offset="0" stop-color="#fff"/><stop id="stop6096" offset=".143" stop-color="#fff" stop-opacity=".235"/><stop id="stop6098" offset=".857" stop-color="#fff" stop-opacity=".157"/><stop id="stop6100" offset="1" stop-color="#fff" stop-opacity=".392"/></linearGradient><linearGradient id="linearGradient8424"><stop id="stop8426" offset="0" stop-color="#fff"/><stop id="stop8428" offset="1" stop-color="#fff" stop-opacity="0"/></linearGradient><linearGradient id="linearGradient23702" x1="9" x2="9" y1="21" y2="18" gradientTransform="matrix(0.5 0 0 .49968 1.75 3.2565)" gradientUnits="userSpaceOnUse" xlink:href="#linearGradient8424"/><linearGradient id="linearGradient23706" x1="9" x2="9" y1="21" y2="18" gradientTransform="matrix(0.5 0 0 .49968 6.75 3.2565)" gradientUnits="userSpaceOnUse" xlink:href="#linearGradient8424"/><linearGradient id="linearGradient23710" x1="9" x2="9" y1="21" y2="18" gradientTransform="matrix(0.5 0 0 .49968 11.75 3.2565)" gradientUnits="userSpaceOnUse" xlink:href="#linearGradient8424"/><linearGradient id="linearGradient23714" x1="9" x2="9" y1="21" y2="18" gradientTransform="matrix(0.5 0 0 .49968 16.75 3.2565)" gradientUnits="userSpaceOnUse" xlink:href="#linearGradient8424"/><linearGradient id="linearGradient23718" x1="9" x2="9" y1="21" y2="18" gradientTransform="matrix(0.5 0 0 .49968 21.75 3.2565)" gradientUnits="userSpaceOnUse" xlink:href="#linearGradient8424"/><linearGradient id="linearGradient23728" x1="16" x2="16" y1="10" y2="16" gradientTransform="matrix(.91667 0 0 1 1.3333 1)" gradientUnits="userSpaceOnUse"><stop id="stop23724" offset="0"/><stop id="stop23726" offset="1" stop-opacity="0"/></linearGradient><linearGradient id="linearGradient918" x1="14.349" x2="14.349" y1="14.962" y2="4.516" gradientUnits="userSpaceOnUse" xlink:href="#linearGradient943"/></defs><metadata id="metadata4720"/><g id="g2036" transform="matrix(0.7 0 0 .44444 .096428 10.249)"><g id="g3712" opacity=".4" transform="matrix(1.0526 0 0 1.2857 -1.2632 -13.429)"><rect id="rect2801" width="5" height="7" x="33.929" y="40" fill="url(#radialGradient3163)"/><rect id="rect3696" width="5" height="7" x="-11.357" y="-47" fill="url(#radialGradient3165)" transform="scale(-1)"/><rect id="rect3700" width="22.572" height="7" x="11.357" y="40" fill="url(#linearGradient3167)"/></g></g><rect id="rect5505" width="22" height="22" x="5" y="-29" fill="url(#radialGradient3035)" rx="1.615" ry="1.615" transform="scale(1,-1)" style="color:#000"/><rect stroke="url(#linearGradient3024)" style="color:#000" id="rect5505-6-6" width="23" height="23" x="4.5" y="6.5" fill="none" stroke-linecap="round" stroke-linejoin="round" rx="2.16" ry="2.16"/><rect id="rect6741-7" width="21" height="21" x="5.5" y="7.5" fill="none" stroke="url(#linearGradient3027)" stroke-linecap="round" stroke-linejoin="round" rx="1.087" ry="1.087"/><g id="g18977" stroke-width=".911" transform="matrix(1.0999 0 0 1.0946 3.654 5.9128)"><path id="rect5583-1" fill="url(#linearGradient5610-3-8)" stroke="url(#linearGradient5618-5-7)" stroke-linejoin="round" stroke-width=".911" d="m16.224 12.419c-1.5094 0-2.7245 1.1388-2.7245 2.7242v6.4051h5.4489v-6.4051c0-1.5854-1.2151-2.7242-2.7244-2.7242z" style="color:#000"/><path id="rect5583-1-7" fill="none" stroke="url(#linearGradient6572-9-1)" stroke-width=".911" d="m16.202 13.295c-1.0067 0-1.8172 0.75312-1.8172 1.6894v5.6194h3.6343v-5.6194c0-0.96167-0.81043-1.6894-1.8171-1.6894z" opacity=".5" style="color:#000"/><path id="path5620-8" fill="#620" d="m18.677 17.513c0 0.65821-1 0.65821-1 0s1-0.65821 1 0z" style="color:#000"/></g><path id="path8539" fill="none" stroke="#fff" stroke-linecap="round" stroke-width="1" d="m7.5071 25.463h8.0466" opacity=".4"/><rect id="rect38378" width="22" height="6" x="5" y="11" fill="url(#linearGradient23728)" opacity=".2" rx="0" ry="0"/><path id="rect8516" fill="url(#linearGradient8827)" fill-rule="evenodd" d="m7.5306 17.5h8.0004v7h-8.0004z" opacity=".9" style="color-rendering:auto;color:#000;isolation:auto;mix-blend-mode:normal;shape-rendering:auto;solid-color:#000;image-rendering:auto"/><path id="path8523" fill="none" stroke="#fff" stroke-linecap="round" stroke-width="1" d="m8.9155 20.213 1.8665-1.846" opacity=".2"/><path id="path8525" fill="none" stroke="#fff" stroke-linecap="round" stroke-width="1" d="m9.9566 23.524 1.8664-1.846" opacity=".2"/><path id="path8527" fill="none" stroke="#fff" stroke-linecap="round" stroke-width="1" d="m12.497 19.809 1.8667-1.8462" opacity=".2"/><path id="rect8529" fill="none" stroke="url(#linearGradient8537)" stroke-linecap="round" stroke-linejoin="round" stroke-opacity=".625" d="m14.53 18.5v5h-5.9996v-5z" style="color-rendering:auto;color:#000;isolation:auto;mix-blend-mode:normal;shape-rendering:auto;solid-color:#000;image-rendering:auto"/><path id="path8592" fill="none" stroke="#fff" stroke-linecap="round" stroke-width="1" d="m13.816 22.221 1.8667-1.8462" opacity=".2"/><path id="path11916" fill="none" stroke="#6490b1" stroke-linecap="round" stroke-linejoin="round" d="m7.5306 17.5h7.9996v7h-7.9996z" style="color-rendering:auto;color:#000;isolation:auto;mix-blend-mode:normal;shape-rendering:auto;solid-color:#000;image-rendering:auto;stroke:#64baff"/><path id="path23683" fill="#eaeaea" fill-rule="evenodd" stroke="#000" stroke-opacity=".365" stroke-width="1" d="m23.5 4.5v7.4595s0.01092 2.5405-2.5 2.5405c-2.489 0-2.5-2.541-2.5-2.541v-7.459c1.8052 0.016249 5 0 5 0z"/><path id="path23685" fill="#eaeaea" fill-rule="evenodd" stroke="#000" stroke-opacity=".365" stroke-width="1" d="m13.5 4.5v7.4595s0.01092 2.5405-2.5 2.5405c-2.4891 0-2.5-2.541-2.5-2.541v-7.459c1.8052 0.016249 5 0 5 0z"/><path style="color:#000;clip-rule:nonzero;display:inline;overflow:visible;visibility:visible;opacity:1;isolation:auto;mix-blend-mode:normal;color-interpolation:sRGB;color-interpolation-filters:linearRGB;solid-color:#000;solid-opacity:1;fill:url(#linearGradient918);fill-opacity:1;fill-rule:nonzero;stroke:#05020d;stroke-width:1;stroke-linecap:round;stroke-linejoin:round;stroke-miterlimit:4;stroke-dasharray:none;stroke-dashoffset:20;stroke-opacity:.49803922;filter-blend-mode:normal;filter-gaussianBlur-deviation:0;color-rendering:auto;image-rendering:auto;shape-rendering:auto;text-rendering:auto;enable-background:accumulate;font-variant-east_asian:normal;vector-effect:none" id="path23720" d="M 5.5 4.5 C 5.5 4.5 3.467696 4.3679 3.5 6.5 L 3.5 11.958984 C 3.5 11.958984 3.5109 14.5 6 14.5 C 8.51092 14.5 8.5 11.958984 8.5 11.958984 L 8.5 4.5 L 5.5 4.5 z M 13.5 4.5 L 13.5 11.958984 C 13.5 11.958984 13.511 14.5 16 14.5 C 18.51092 14.5 18.5 11.958984 18.5 11.958984 L 18.5 4.5 C 18.5 4.5 15.3052 4.516249 13.5 4.5 z M 23.5 4.5 L 23.5 11.958984 C 23.5 11.958984 23.48908 14.5 26 14.5 C 28.4891 14.5 28.5 11.958984 28.5 11.958984 L 28.5 6.5 C 28.5323 4.3679 26.5 4.5 26.5 4.5 L 23.5 4.5 z"/><ellipse id="path8406" cx="6" cy="12.001" fill="none" stroke="url(#linearGradient23702)" stroke-linecap="round" stroke-linejoin="round" stroke-opacity=".392" opacity=".4" rx="1.5" ry="1.499" style="color-rendering:auto;color:#000;isolation:auto;mix-blend-mode:normal;shape-rendering:auto;solid-color:#000;image-rendering:auto"/><ellipse id="ellipse23704" cx="11" cy="12.001" fill="none" stroke="url(#linearGradient23706)" stroke-linecap="round" stroke-linejoin="round" stroke-opacity=".392" rx="1.5" ry="1.499" style="color-rendering:auto;color:#000;isolation:auto;mix-blend-mode:normal;shape-rendering:auto;solid-color:#000;image-rendering:auto"/><ellipse stroke-linejoin="round" style="color-rendering:auto;color:#000;isolation:auto;mix-blend-mode:normal;shape-rendering:auto;solid-color:#000;image-rendering:auto" id="ellipse23708" cx="16" cy="12.001" fill="none" stroke="url(#linearGradient23710)" stroke-linecap="round" stroke-opacity=".392" opacity=".4" rx="1.5" ry="1.499"/><ellipse id="ellipse23712" cx="21" cy="12.001" fill="none" stroke="url(#linearGradient23714)" stroke-linecap="round" stroke-linejoin="round" stroke-opacity=".392" rx="1.5" ry="1.499" style="color-rendering:auto;color:#000;isolation:auto;mix-blend-mode:normal;shape-rendering:auto;solid-color:#000;image-rendering:auto"/><ellipse id="ellipse23716" cx="26" cy="12.001" fill="none" stroke="url(#linearGradient23718)" stroke-linecap="round" stroke-linejoin="round" stroke-opacity=".392" opacity=".4" rx="1.5" ry="1.499" style="color-rendering:auto;color:#000;isolation:auto;mix-blend-mode:normal;shape-rendering:auto;solid-color:#000;image-rendering:auto"/><path id="path23730" fill="none" stroke="#fff" stroke-width="1" d="m4 9.5h24" opacity=".1"/><path id="path23732" fill="none" stroke="#fff" stroke-width="1" d="m4 5.5h24" opacity=".1"/><rect id="rect23734" width="24" height="5" x="4" y="5" rx="1.238" ry="1.238" style="opacity:.05;fill:#fff"/><path style="color-rendering:auto;color:#000;isolation:auto;mix-blend-mode:normal;shape-rendering:auto;solid-color:#000;image-rendering:auto;stroke:#000;stroke-opacity:1;opacity:.2" id="path3416" fill="none" stroke="#6490b1" stroke-linecap="round" stroke-linejoin="round" d="m7.5306 17.5h7.9996v7h-7.9996z"/></svg>