<svg xmlns="http://www.w3.org/2000/svg" xmlns:svg="http://www.w3.org/2000/svg" xmlns:xlink="http://www.w3.org/1999/xlink" id="svg4389" width="64" height="64" version="1.1"><defs id="defs4391"><linearGradient id="linearGradient946"><stop style="stop-color:#452981;stop-opacity:1" id="stop940" offset="0"/><stop id="stop942" offset=".545" style="stop-color:#7239b3;stop-opacity:1"/><stop style="stop-color:#7239b3;stop-opacity:1" id="stop944" offset="1"/></linearGradient><linearGradient id="linearGradient8775"><stop id="stop8777" offset="0"/><stop id="stop8779" offset="1" stop-opacity="0"/></linearGradient><linearGradient id="linearGradient3688-166-749"><stop id="stop2883" offset="0" stop-color="#181818"/><stop id="stop2885" offset="1" stop-color="#181818" stop-opacity="0"/></linearGradient><linearGradient id="linearGradient6572-9-1" x1="633.31" x2="633.31" y1="226.4" y2="230.24" gradientTransform="matrix(6.0005,0,0,6.0034,-3752.2,-1323.2)" gradientUnits="userSpaceOnUse"><stop id="stop6094" offset="0" stop-color="#fff"/><stop id="stop6096" offset=".1" stop-color="#fff" stop-opacity=".235"/><stop id="stop6098" offset=".918" stop-color="#fff" stop-opacity=".157"/><stop id="stop6100" offset="1" stop-color="#fff" stop-opacity=".392"/></linearGradient><linearGradient id="linearGradient5610-3-8" x1="8" x2="8" y1="15" y2="10" gradientTransform="matrix(5,0,0,5.1216,6.9999,-14.763)" gradientUnits="userSpaceOnUse"><stop id="stop5606-8-2" offset="0" stop-color="#ae6a37"/><stop id="stop5608-5-0" offset="1" stop-color="#d28e5b"/></linearGradient><linearGradient id="linearGradient5618-5-7" x1="9" x2="9" y1="10" y2="15" gradientTransform="matrix(5,0,0,5.1216,6.9999,-14.763)" gradientUnits="userSpaceOnUse"><stop id="stop5614-2-5" offset="0" stop-color="#492714" stop-opacity=".625"/><stop id="stop5616-0-2" offset="1" stop-color="#6a3f1f" stop-opacity=".77"/></linearGradient><linearGradient id="linearGradient8537" x1="11" x2="23" y1="34" y2="34" gradientTransform="matrix(0,1.5455,-1.6154,0,76.923,14.727)" gradientUnits="userSpaceOnUse"><stop id="stop3926-9-4-9-6" offset="0" stop-color="#fff"/><stop id="stop3928-9-8-6-5" offset=".063" stop-color="#fff" stop-opacity=".235"/><stop id="stop3930-3-5-1-7" offset=".951" stop-color="#fff" stop-opacity=".157"/><stop id="stop3932-8-0-4-8" offset="1" stop-color="#fff" stop-opacity=".392"/></linearGradient><radialGradient id="radialGradient8781" cx="12.5" cy="20" r="4.5" gradientTransform="matrix(1,0,0,0.66667,0,6.6667)" gradientUnits="userSpaceOnUse" xlink:href="#linearGradient8775"/><radialGradient id="radialGradient8785" cx="12.5" cy="20" r="4.5" gradientTransform="matrix(0.83333,0,0,0.55556,2.3333,8.3889)" gradientUnits="userSpaceOnUse" xlink:href="#linearGradient8775"/><radialGradient id="radialGradient8797" cx="12.5" cy="20" r="4.5" gradientTransform="matrix(1,0,0,0.66667,8,6.6667)" gradientUnits="userSpaceOnUse" xlink:href="#linearGradient8775"/><radialGradient id="radialGradient8799" cx="12.5" cy="20" r="4.5" gradientTransform="matrix(0.83333,0,0,0.55556,10.333,8.3889)" gradientUnits="userSpaceOnUse" xlink:href="#linearGradient8775"/><radialGradient id="radialGradient8807" cx="12.5" cy="20" r="4.5" gradientTransform="matrix(1,0,0,0.66667,16,6.6667)" gradientUnits="userSpaceOnUse" xlink:href="#linearGradient8775"/><radialGradient id="radialGradient8809" cx="12.5" cy="20" r="4.5" gradientTransform="matrix(0.83333,0,0,0.55556,18.333,8.3889)" gradientUnits="userSpaceOnUse" xlink:href="#linearGradient8775"/><radialGradient id="radialGradient8817" cx="12.5" cy="20" r="4.5" gradientTransform="matrix(1,0,0,0.66667,24,6.6667)" gradientUnits="userSpaceOnUse" xlink:href="#linearGradient8775"/><radialGradient id="radialGradient8819" cx="12.5" cy="20" r="4.5" gradientTransform="matrix(0.83333,0,0,0.55556,26.333,8.3889)" gradientUnits="userSpaceOnUse" xlink:href="#linearGradient8775"/><linearGradient id="linearGradient8827" x1="20" x2="20" y1="27" y2="38" gradientTransform="matrix(1.5333,0,0,1.4615,-4.0667,-7.2308)" gradientUnits="userSpaceOnUse"><stop style="stop-color:#64baff;stop-opacity:1" id="stop8823" offset="0" stop-color="#6db0de"/><stop style="stop-color:#8cd5ff;stop-opacity:1" id="stop8825" offset="1" stop-color="#a4cae4"/></linearGradient><linearGradient id="linearGradient3647" x1="24" x2="24" y1="5" y2="43" gradientTransform="matrix(1.4054,0,0,1.3243,-1.2297,2.2875)" gradientUnits="userSpaceOnUse"><stop id="stop3926-3" offset="0" stop-color="#fff"/><stop id="stop3928-91" offset=".063" stop-color="#fff" stop-opacity=".235"/><stop id="stop3930-6" offset=".951" stop-color="#fff" stop-opacity=".157"/><stop id="stop3932-6" offset="1" stop-color="#fff" stop-opacity=".392"/></linearGradient><radialGradient id="radialGradient3651" cx="32" cy="4.342" r="27.5" gradientTransform="matrix(1.0239e-8,2.1392,-2.3523,0,41.714,-59.598)" gradientUnits="userSpaceOnUse"><stop id="stop4634-68-8-0-2-9-1" offset="0" stop-color="#fafafa"/><stop id="stop4636-8-21-7-1-4-9" offset="1" stop-color="#e1e1e1"/></radialGradient><radialGradient id="radialGradient3337-2-2-5" cx="4.993" cy="43.5" r="2.5" gradientTransform="matrix(2.0038,0,0,1.4,26.721,-17.4)" gradientUnits="userSpaceOnUse" xlink:href="#linearGradient3688-166-749"/><radialGradient id="radialGradient3339-1-4-1" cx="4.993" cy="43.5" r="2.5" gradientTransform="matrix(2.0038,0,0,1.4,-20.012,-104.4)" gradientUnits="userSpaceOnUse" xlink:href="#linearGradient3688-166-749"/><linearGradient id="linearGradient13984-1" x1="25.058" x2="25.058" y1="47.028" y2="39.999" gradientTransform="matrix(0.95477,0,0,1,0.45229,0)" gradientUnits="userSpaceOnUse"><stop id="stop2895" offset="0" stop-color="#181818" stop-opacity="0"/><stop id="stop2897" offset=".5" stop-color="#181818"/><stop id="stop2899" offset="1" stop-color="#181818" stop-opacity="0"/></linearGradient><linearGradient id="linearGradient38386" x1="32" x2="32" y1="18" y2="33" gradientTransform="matrix(0.96364,0,0,1,1.1818,-1)" gradientUnits="userSpaceOnUse"><stop id="stop38382" offset="0"/><stop id="stop38384" offset="1" stop-opacity="0"/></linearGradient><linearGradient id="linearGradient38426" x1="9" x2="9" y1="21" y2="18" gradientTransform="matrix(1.1113 0 0 1.1062 -.96614 -1.5896)" gradientUnits="userSpaceOnUse"><stop id="stop8426" offset="0" stop-color="#fff"/><stop id="stop8428" offset="1" stop-color="#fff" stop-opacity="0"/></linearGradient><linearGradient id="linearGradient38458" x1="33" x2="33" y1="14" y2="8" gradientUnits="userSpaceOnUse"><stop id="stop38454" offset="0" stop-color="#fff"/><stop id="stop38456" offset="1" stop-color="#fff" stop-opacity="0"/></linearGradient><linearGradient id="linearGradient38466" x1="33.807" x2="62.436" y1="13.635" y2="8.773" gradientUnits="userSpaceOnUse"><stop id="stop38462" offset="0" stop-color="#fff"/><stop id="stop38464" offset="1" stop-color="#fff" stop-opacity="0"/></linearGradient><linearGradient id="linearGradient3440" x1="9" x2="9" y1="21" y2="18" gradientTransform="matrix(1.1113,0,0,1.1062,-0.96614,-1.5896)" gradientUnits="userSpaceOnUse" xlink:href="#linearGradient38426"/><linearGradient id="linearGradient936" x1="8.947" x2="8.947" y1="26" y2="4" gradientUnits="userSpaceOnUse" xlink:href="#linearGradient946"/></defs><metadata id="metadata4394"/><g style="opacity:.4" id="g3712-8-2-4-4" transform="matrix(1.579,0,0,0.71429,-4.8948,27.929)"><rect style="fill:url(#radialGradient3337-2-2-5)" id="rect2801-5-5-7-9" width="5" height="7" x="36.733" y="40"/><rect style="fill:url(#radialGradient3339-1-4-1)" id="rect3696-3-0-3-7" width="5" height="7" x="-10" y="-47" transform="scale(-1,-1)"/><rect style="fill:url(#linearGradient13984-1)" id="rect3700-5-6-8-4" width="26.734" height="7" x="10" y="40"/></g><path style="color:#000;fill:url(#radialGradient3651)" id="rect5505-21-3-8-5-2" d="m 8.5098,9 c -1.385,0 -2.5,1.115 -2.5,2.5 l 0,45 c 0,1.385 1.115,2.5 2.5,2.5 l 47.98,0 c 1.385,0 2.5,-1.115 2.5,-2.5 l 0,-45 c 0,-1.385 -1.115,-2.5 -2.5,-2.5 z m 2.9902,22.5 22,0 0,19 -22,-10e-7 z"/><rect style="fill:none;stroke:url(#linearGradient3647);stroke-linecap:round;stroke-linejoin:round" id="rect6741-5-0-2-3" width="52" height="49" x="6.5" y="9.571" rx="2" ry="2"/><rect style="color:#000;opacity:.3;fill:none;stroke:#000" id="rect5505-21-3-8-9-1-1" width="54" height="51" x="5.5" y="8.5" rx="3" ry="3"/><path style="color:#000;opacity:.9;isolation:auto;mix-blend-mode:normal;solid-color:#000;fill:url(#linearGradient8827);fill-rule:evenodd;color-rendering:auto;image-rendering:auto;shape-rendering:auto" id="rect8516" d="m 11.5,31.5 22,0 0,19 -22,0 z"/><path style="opacity:.2;fill:none;stroke:#fff;stroke-width:1px;stroke-linecap:round" id="path8523" d="m 13.04,38.081 6.1285,-6"/><path style="opacity:.2;fill:none;stroke:#fff;stroke-width:1px;stroke-linecap:round" id="path8525" d="m 16.104,48.581 6.1285,-6"/><path style="opacity:.2;fill:none;stroke:#fff;stroke-width:1px;stroke-linecap:round" id="path8527" d="m 22.233,38.081 6.128,-6"/><path style="color:#000;fill:url(#linearGradient5610-3-8);stroke:url(#linearGradient5618-5-7);stroke-linejoin:round" id="rect5583-1" d="m 47,35.47 c -4.1551,0 -7.5001,3.3493 -7.5001,7.6053 l 0,16.424 15,0 0,-16.424 C 54.4999,38.8193 51.155,35.47 47,35.47 Z"/><path style="color:#000;opacity:.5;fill:none;stroke:url(#linearGradient6572-9-1)" id="rect5583-1-7" d="m 46.954,36.47 c -3.5927,0 -6.4915,3.0813 -6.485,6.5499 l 0.029,15.48 12.97,0 -0.02895,-15.48 c -0.0067,-3.5627 -2.8922,-6.5499 -6.485,-6.5499 z"/><path style="color:#000;opacity:.2;fill:#fff" id="path38348" d="m 52,49.494 c 0,2.0085 -3,2.0085 -3,0 0,-2.0085 3,-2.0085 3,0 z"/><path style="color:#000;fill:#620" id="path5620-8" d="m 52,48.494 c 0,2.0085 -3,2.0085 -3,0 0,-2.0085 3,-2.0085 3,0 z"/><path style="color:#000;isolation:auto;mix-blend-mode:normal;solid-color:#000;fill:none;stroke:url(#linearGradient8537);stroke-linecap:round;stroke-linejoin:round;stroke-opacity:.625;color-rendering:auto;image-rendering:auto;shape-rendering:auto" id="rect8529" d="m 32.5,32.5 0,17 -20,0 0,-17 z"/><path style="opacity:.4;fill:none;stroke:#fff;stroke-width:1px;stroke-linecap:round" id="path8539" d="m 11.511,51.5 21.986,0"/><path style="opacity:.2;fill:none;stroke:#fff;stroke-width:1px;stroke-linecap:round" id="path8592" d="m 26.829,44.081 6.1285,-6"/><path style="color:#000;isolation:auto;mix-blend-mode:normal;solid-color:#000;fill:none;stroke:#64baff;stroke-linecap:round;stroke-linejoin:round;color-rendering:auto;image-rendering:auto;shape-rendering:auto" id="path11916" d="m 11.5,31.5 22,0 0,19 -22,0 z"/><rect style="opacity:.2;fill:url(#linearGradient38386)" id="rect38378" width="53" height="16" x="6" y="16" rx="0" ry="0"/><g style="fill-rule:evenodd;stroke-width:.66526002" id="g11938" transform="matrix(1.5,0,0,1.5063,-4.2204,-6.266)"><ellipse style="color:#000;opacity:.2;isolation:auto;mix-blend-mode:normal;solid-color:#000;fill:url(#radialGradient8807);color-rendering:auto;image-rendering:auto;shape-rendering:auto" id="ellipse8803" cx="28.5" cy="20" rx="4.5" ry="3"/><ellipse style="color:#000;opacity:.2;isolation:auto;mix-blend-mode:normal;solid-color:#000;fill:url(#radialGradient8809);color-rendering:auto;image-rendering:auto;shape-rendering:auto" id="ellipse8805" cx="28.75" cy="19.5" rx="3.75" ry="2.5"/><ellipse style="color:#000;opacity:.2;isolation:auto;mix-blend-mode:normal;solid-color:#000;fill:url(#radialGradient8797);color-rendering:auto;image-rendering:auto;shape-rendering:auto" id="ellipse8793" cx="20.5" cy="20" rx="4.5" ry="3"/><ellipse style="color:#000;opacity:.2;isolation:auto;mix-blend-mode:normal;solid-color:#000;fill:url(#radialGradient8799);color-rendering:auto;image-rendering:auto;shape-rendering:auto" id="ellipse8795" cx="20.75" cy="19.5" rx="3.75" ry="2.5"/><ellipse style="color:#000;opacity:.2;isolation:auto;mix-blend-mode:normal;solid-color:#000;fill:url(#radialGradient8817);color-rendering:auto;image-rendering:auto;shape-rendering:auto" id="ellipse8813" cx="36.5" cy="20" rx="4.5" ry="3"/><ellipse style="color:#000;opacity:.2;isolation:auto;mix-blend-mode:normal;solid-color:#000;fill:url(#radialGradient8819);color-rendering:auto;image-rendering:auto;shape-rendering:auto" id="ellipse8815" cx="36.75" cy="19.5" rx="3.75" ry="2.5"/><ellipse style="color:#000;opacity:.2;isolation:auto;mix-blend-mode:normal;solid-color:#000;fill:url(#radialGradient8781);color-rendering:auto;image-rendering:auto;shape-rendering:auto" id="path8763" cx="12.5" cy="20" rx="4.5" ry="3"/><ellipse style="color:#000;opacity:.2;isolation:auto;mix-blend-mode:normal;solid-color:#000;fill:url(#radialGradient8785);color-rendering:auto;image-rendering:auto;shape-rendering:auto" id="ellipse8783" cx="12.75" cy="19.5" rx="3.75" ry="2.5"/></g><path style="fill:#eaeaea;fill-rule:evenodd;stroke:#000;stroke-width:1px;stroke-opacity:.36327999" id="path8461" d="m 49.78,3.5253 0.75,10.928 0,6.061 c 0,0 0.02621,6.0306 -6,6.0306 -5.9738,0 -6,-6.0306 -6,-6.0306 l 0,-16.989 c 4.3325,0.03857 11.25,0 11.25,0 z"/><path style="fill:#eaeaea;fill-rule:evenodd;stroke:#000;stroke-width:1px;stroke-opacity:.36327999" id="path8431" d="m 26.53,3.5253 0,16.989 c 0,0 0.02621,6.0306 -6,6.0306 -5.9738,0 -6,-6.0306 -6,-6.0306 l 0,-6.061 0.74999,-10.928 c 4.3325,0.03857 11.25,0 11.25,0 z"/><path style="fill:url(#linearGradient936);fill-rule:nonzero;stroke:#05020d;stroke-width:1;stroke-opacity:.49803922;color:#000;clip-rule:nonzero;display:inline;overflow:visible;visibility:visible;opacity:1;isolation:auto;mix-blend-mode:normal;color-interpolation:sRGB;color-interpolation-filters:linearRGB;solid-color:#000;solid-opacity:1;fill-opacity:1;stroke-linecap:round;stroke-linejoin:round;stroke-miterlimit:4;stroke-dasharray:none;stroke-dashoffset:20;filter-blend-mode:normal;filter-gaussianBlur-deviation:0;color-rendering:auto;image-rendering:auto;shape-rendering:auto;text-rendering:auto;enable-background:accumulate" id="path8361" d="M 7.0292969 3.5253906 C 7.0292969 3.5253906 4.5659969 3.5725994 4.0292969 6.5371094 L 2.5292969 14.453125 L 2.5292969 20.513672 C 2.5292969 20.513672 2.5030929 26.544922 8.5292969 26.544922 C 14.503097 26.544922 14.529297 20.513672 14.529297 20.513672 L 14.529297 14.453125 L 15.279297 3.5253906 L 7.0292969 3.5253906 z M 26.529297 3.5253906 L 26.529297 20.513672 C 26.529297 20.513672 26.555497 26.544922 32.529297 26.544922 C 38.555507 26.544922 38.529297 20.513672 38.529297 20.513672 L 38.529297 3.5253906 C 38.529297 3.5253906 30.861797 3.5639606 26.529297 3.5253906 z M 49.779297 3.5253906 L 50.529297 14.453125 L 50.529297 20.513672 C 50.529297 20.513672 50.555497 26.544922 56.529297 26.544922 C 62.555507 26.544922 62.529297 20.513672 62.529297 20.513672 L 62.529297 14.546875 L 61.029297 6.5371094 C 60.498397 3.5715494 58.029297 3.5253906 58.029297 3.5253906 L 49.779297 3.5253906 z"/><g style="stroke-width:.66526002" id="g11931" transform="matrix(1.5,0,0,1.5063,-4.2204,-6.266)"><ellipse style="color:#000;opacity:.4;isolation:auto;mix-blend-mode:normal;solid-color:#000;fill:none;stroke:url(#linearGradient3440);stroke-width:.66526002;stroke-linecap:round;stroke-linejoin:round;stroke-opacity:.39216003;color-rendering:auto;image-rendering:auto;shape-rendering:auto" id="path8406" cx="8.48" cy="17.769" rx="3.334" ry="3.319"/><use id="use33625" width="100%" height="100%" x="0" y="0" transform="translate(8,0)" xlink:href="#path8406"/><use id="use33627" width="100%" height="100%" x="0" y="0" transform="translate(16,0)" xlink:href="#path8406"/><use id="use33629" width="100%" height="100%" x="0" y="0" transform="translate(24,0)" xlink:href="#path8406"/><use id="use33631" width="100%" height="100%" x="0" y="0" transform="translate(32,0)" xlink:href="#path8406"/></g><path style="opacity:.1;fill:url(#linearGradient38466);fill-rule:evenodd" id="path33633" d="m 58.125,3.5 -50.5,0.125 c 0,0 -2.8457,-0.40039 -3.5957,2.9121 l -1.4062,7.416 59.813,0.09375 -1.4062,-7.5098 c -0.438,-2.8125 -2.905,-3.0371 -2.905,-3.0371 z"/><path style="opacity:.2;fill:none;stroke:url(#linearGradient38458);stroke-width:1px;stroke-linejoin:round" id="path33635" d="M 5,6 3.53,14.453 61.5,14.547 60,6"/><path style="opacity:.2;fill:none;stroke:#fff;stroke-width:1px;stroke-linecap:round" id="path38357" d="m 6,4.5 53,0"/><path id="path3434" d="m 11.5,31.5 22,0 0,19 -22,0 z" style="color:#000;isolation:auto;mix-blend-mode:normal;solid-color:#000;fill:none;stroke:#000;stroke-linecap:round;stroke-linejoin:round;color-rendering:auto;image-rendering:auto;shape-rendering:auto;stroke-opacity:1;opacity:.2"/></svg>