<svg xmlns="http://www.w3.org/2000/svg" xmlns:svg="http://www.w3.org/2000/svg" id="svg7384" width="16" height="16.008" version="1.1"><metadata id="metadata90"/><title id="title9167">elementary Symbolic Icon Theme</title><defs id="defs7386"><filter id="filter7554" color-interpolation-filters="sRGB"><feBlend id="feBlend7556" in2="BackgroundImage" mode="darken"/></filter></defs><g id="layer13" transform="translate(-713.0004,584)" style="display:inline"><path id="rect2996-2" d="m 726.36939,-584 -7.375,1.90625 c -0.554,0.14844 -1,0.73896 -1,1.3125 l 0,9.09375 c -0.56177,-0.29416 -1.28326,-0.4131 -2.03125,-0.21875 -1.34976,0.35071 -2.19558,1.48415 -1.90625,2.53125 0.28933,1.0471 1.61899,1.63196 2.96875,1.28125 1.07683,-0.2798 1.81912,-1.07145 1.9375,-1.90625 l 0.0312,-8.59375 7,-1.875 0,6.78125 c -0.56177,-0.29416 -1.28326,-0.4131 -2.03125,-0.21875 -1.34976,0.35071 -2.19558,1.48415 -1.90625,2.53125 0.28933,1.0471 1.61899,1.63196 2.96875,1.28125 1.07683,-0.2798 1.81912,-1.07145 1.9375,-1.90625 l 0.0312,-11.1875 c 0,-0.43016 -0.26584,-0.75199 -0.625,-0.8125 z" style="color:#bebebe;fill:#bebebe;fill-opacity:1;fill-rule:nonzero;stroke:none;stroke-width:1;marker:none;visibility:visible;display:inline;overflow:visible;enable-background:accumulate"/></g></svg>