<svg xmlns="http://www.w3.org/2000/svg" xmlns:svg="http://www.w3.org/2000/svg" id="svg7384" width="16" height="16" version="1.1"><metadata id="metadata90"/><title id="title9167">elementary Symbolic Icon Theme</title><defs id="defs7386"><filter id="filter7554" color-interpolation-filters="sRGB"><feBlend id="feBlend7556" in2="BackgroundImage" mode="darken"/></filter><filter id="filter7554-7" color-interpolation-filters="sRGB"><feBlend id="feBlend7556-6" in2="BackgroundImage" mode="darken"/></filter></defs><path id="path6668" d="m 9.1853306,4.1817922 c 0,0.626063 -0.507036,1.134173 -1.13178,1.134173 -0.624742,0 -1.131782,-0.5081096 -1.131782,-1.134173 0,-0.6260636 0.50704,-1.1341733 1.131782,-1.1341733 0.624744,0 1.13178,0.5081097 1.13178,1.1341733 z M 12.0101,5.3877853 c -0.05234,0.0085 -0.101809,0.029189 -0.144201,0.060357 L 7.9998826,6.0522818 4.1546906,5.4398105 c -0.0994,-0.072246 -0.239147,-0.093879 -0.350213,-0.040242 -0.111067,0.053636 -0.183879,0.1807637 -0.18541,0.3017344 -0.0015,0.1209871 0.07572,0.2253257 0.18541,0.2816225 l 3.013081,0.9578557 -0.02061,2.198913 -1.063196,3.2932629 c -0.102397,0.149961 -0.07119,0.342553 0.08241,0.442529 0.153596,0.09999 0.371418,0.06953 0.473825,-0.08045 l 1.715783,-3.5547552 1.683398,3.5486122 c 0.09103,0.155543 0.293932,0.209575 0.4532234,0.120696 0.159288,-0.08888 0.214629,-0.287002 0.123604,-0.442546 L 9.2225366,9.1596134 9.1813366,7.0894854 12.236697,5.9711467 C 12.36015,5.8866139 12.41378,5.7265865 12.36031,5.5889526 12.306835,5.4513038 12.159891,5.3711073 12.010089,5.3877857 l 1.1e-5,0 z" style="color:#000;display:inline;overflow:visible;visibility:visible;fill:#bebebe;fill-opacity:1;fill-rule:nonzero;stroke:none;marker:none;enable-background:accumulate"/><path style="color:#000;font-style:normal;font-variant:normal;font-weight:400;font-stretch:normal;font-size:medium;line-height:normal;font-family:sans-serif;text-indent:0;text-align:start;text-decoration:none;text-decoration-line:none;text-decoration-style:solid;text-decoration-color:#000;letter-spacing:normal;word-spacing:normal;text-transform:none;direction:ltr;block-progression:tb;writing-mode:lr-tb;baseline-shift:baseline;text-anchor:start;white-space:normal;clip-rule:nonzero;display:inline;overflow:visible;visibility:visible;opacity:1;isolation:auto;mix-blend-mode:normal;color-interpolation:sRGB;color-interpolation-filters:linearRGB;solid-color:#000;solid-opacity:1;fill:#bebebe;fill-opacity:1;fill-rule:nonzero;stroke:none;stroke-width:1.0476191;stroke-linecap:round;stroke-linejoin:round;stroke-miterlimit:4;stroke-dasharray:none;stroke-dashoffset:0;stroke-opacity:1;marker:none;color-rendering:auto;image-rendering:auto;shape-rendering:auto;text-rendering:auto;enable-background:accumulate" id="path4954" d="M 8,1 C 4.140211,1 1,4.140211 1,8 c 0,3.859789 3.140211,7 7,7 3.859789,0 7,-3.140211 7,-7 C 15,4.140211 11.859789,1 8,1 Z m 0,1.046875 c 3.293614,0 5.953125,2.6595114 5.953125,5.953125 0,3.293614 -2.659511,5.953125 -5.953125,5.953125 C 4.7063864,13.953125 2.046875,11.293614 2.046875,8 2.046875,4.7063864 4.7063864,2.046875 8,2.046875 Z"/></svg>