<svg xmlns="http://www.w3.org/2000/svg" xmlns:osb="http://www.openswatchbook.org/uri/2009/osb" xmlns:svg="http://www.w3.org/2000/svg" xmlns:xlink="http://www.w3.org/1999/xlink" id="svg2" width="436" height="214" version="1.1" viewBox="0 0 436 214"><defs id="defs4"><linearGradient id="linearGradient6209"><stop style="stop-color:#ffc076;stop-opacity:1" id="stop6211" offset="0"/><stop style="stop-color:#fcffba;stop-opacity:0" id="stop6213" offset="1"/></linearGradient><linearGradient id="linearGradient5968"><stop style="stop-color:#f8611e;stop-opacity:1" id="stop5970" offset="0"/><stop style="stop-color:#ff4500;stop-opacity:0" id="stop5972" offset="1"/></linearGradient><linearGradient id="linearGradient2867-449-88-871-390-598-476-591-434-148-57-177-8-3-3-6-4-8-8-8-5"><stop id="stop3750-1-0-7-6-6-1-3-9-3" offset="0" style="stop-color:#919caf;stop-opacity:1"/><stop id="stop3752-3-7-4-0-32-8-923-0-7" offset=".262" style="stop-color:#68758e;stop-opacity:1"/><stop id="stop3754-1-8-5-2-7-6-7-1-9" offset=".705" style="stop-color:#485a6c;stop-opacity:1"/><stop id="stop3756-1-6-2-6-6-1-96-6-0" offset="1" style="stop-color:#444c5c;stop-opacity:1"/></linearGradient><linearGradient id="linearGradient2867-449-88-871-390-598-476-591-434-148-57-177-8-3-3-6-4-8-8-8"><stop style="stop-color:#ffcd7d;stop-opacity:1" id="stop3750-1-0-7-6-6-1-3-9" offset="0"/><stop style="stop-color:#fc8f36;stop-opacity:1" id="stop3752-3-7-4-0-32-8-923-0" offset=".262"/><stop style="stop-color:#e23a0e;stop-opacity:1" id="stop3754-1-8-5-2-7-6-7-1" offset=".705"/><stop style="stop-color:#ac441f;stop-opacity:1" id="stop3756-1-6-2-6-6-1-96-6" offset="1"/></linearGradient><linearGradient id="linearGradient3034" x1="41.778" x2="41.778" y1="5.769" y2="42.231" gradientTransform="matrix(6.837683,0,0,3.81089,277.89179,322.90235)" gradientUnits="userSpaceOnUse"><stop id="stop3926-9-4-9-6-9" offset="0" stop-color="#fff"/><stop id="stop3928-9-8-6-5-8" offset=".015" stop-color="#fff" stop-opacity=".235"/><stop id="stop3930-3-5-1-7-8" offset=".978" stop-color="#fff" stop-opacity=".157"/><stop id="stop3932-8-0-4-8-0" offset="1" stop-color="#fff" stop-opacity=".392"/></linearGradient><radialGradient id="radialGradient3037-5" cx="6.73" cy="9.957" r="12.672" fx="6.2" gradientTransform="matrix(0,13.394,-16.444,0,196.9,-114.89)" gradientUnits="userSpaceOnUse"><stop id="stop4425" offset="0" stop-color="#bd94e7"/><stop id="stop4427" offset=".262" stop-color="#7b6ca3"/><stop id="stop4429" offset=".705" stop-color="#574a76"/><stop id="stop4431" offset="1" stop-color="#3f3654"/></radialGradient><linearGradient id="linearGradient3034-2" x1="41.778" x2="41.778" y1="5.769" y2="42.231" gradientTransform="matrix(6.837683,0,0,3.81089,-8.10821,322.90235)" gradientUnits="userSpaceOnUse"><stop id="stop3926-9-4-9-6-9-0" offset="0" stop-color="#fff"/><stop id="stop3928-9-8-6-5-8-8" offset=".015" stop-color="#fff" stop-opacity=".235"/><stop id="stop3930-3-5-1-7-8-7" offset=".978" stop-color="#fff" stop-opacity=".157"/><stop id="stop3932-8-0-4-8-0-4" offset="1" stop-color="#fff" stop-opacity=".392"/></linearGradient><linearGradient id="linearGradient3034-2-9" x1="41.778" x2="41.778" y1="5.769" y2="42.231" gradientTransform="matrix(6.837683,0,0,3.81089,566.89179,500.90235)" gradientUnits="userSpaceOnUse"><stop id="stop3926-9-4-9-6-9-0-8" offset="0" stop-color="#fff"/><stop id="stop3928-9-8-6-5-8-8-4" offset=".015" stop-color="#fff" stop-opacity=".235"/><stop id="stop3930-3-5-1-7-8-7-8" offset=".978" stop-color="#fff" stop-opacity=".157"/><stop id="stop3932-8-0-4-8-0-4-9" offset="1" stop-color="#fff" stop-opacity=".392"/></linearGradient><radialGradient id="radialGradient3164" cx="7.496" cy="8.45" r="20" gradientTransform="matrix(1.273594e-7,3.2957553,-5.3809239,0,77.467708,-19.382411)" gradientUnits="userSpaceOnUse"><stop style="stop-color:#f8b17e;stop-opacity:1" id="stop3244" offset="0"/><stop style="stop-color:#e35d4f;stop-opacity:1" id="stop3246" offset=".262"/><stop style="stop-color:#c6262e;stop-opacity:1" id="stop3248" offset=".661"/><stop style="stop-color:#690b54;stop-opacity:1" id="stop3250" offset="1"/></radialGradient><linearGradient id="linearGradient4215-8-4-07-7"><stop style="stop-color:#2b3235;stop-opacity:1" id="stop4217-1-2-1-2" offset="0"/><stop style="stop-color:#374044;stop-opacity:1" id="stop4219-3-4-0-96" offset="1"/></linearGradient><linearGradient id="linearGradient3034-2-9-1" x1="41.778" x2="41.778" y1="5.769" y2="42.231" gradientTransform="matrix(6.837683,0,0,3.81089,275.8918,500.90235)" gradientUnits="userSpaceOnUse"><stop id="stop3926-9-4-9-6-9-0-8-8" offset="0" stop-color="#fff"/><stop id="stop3928-9-8-6-5-8-8-4-0" offset=".015" stop-color="#fff" stop-opacity=".235"/><stop id="stop3930-3-5-1-7-8-7-8-8" offset=".978" stop-color="#fff" stop-opacity=".157"/><stop id="stop3932-8-0-4-8-0-4-9-3" offset="1" stop-color="#fff" stop-opacity=".392"/></linearGradient><linearGradient id="linearGradient3034-2-9-1-3" x1="41.778" x2="41.778" y1="5.769" y2="42.231" gradientTransform="matrix(6.837683,0,0,3.81089,275.8918,676.90235)" gradientUnits="userSpaceOnUse"><stop id="stop3926-9-4-9-6-9-0-8-8-4" offset="0" stop-color="#fff"/><stop id="stop3928-9-8-6-5-8-8-4-0-8" offset=".015" stop-color="#fff" stop-opacity=".235"/><stop id="stop3930-3-5-1-7-8-7-8-8-5" offset=".978" stop-color="#fff" stop-opacity=".157"/><stop id="stop3932-8-0-4-8-0-4-9-3-0" offset="1" stop-color="#fff" stop-opacity=".392"/></linearGradient><linearGradient id="linearGradient3034-2-7" x1="41.778" x2="41.778" y1="5.769" y2="42.231" gradientTransform="matrix(6.837683,0,0,3.81089,-8.10821,854.90227)" gradientUnits="userSpaceOnUse"><stop id="stop3926-9-4-9-6-9-0-9" offset="0" stop-color="#fff"/><stop id="stop3928-9-8-6-5-8-8-7" offset=".015" stop-color="#fff" stop-opacity=".235"/><stop id="stop3930-3-5-1-7-8-7-9" offset=".978" stop-color="#fff" stop-opacity=".157"/><stop id="stop3932-8-0-4-8-0-4-0" offset="1" stop-color="#fff" stop-opacity=".392"/></linearGradient><linearGradient id="linearGradient2867-449-88-871-390-598-476-591-434-148-57-177-3-8"><stop style="stop-color:#90dbec;stop-opacity:1" id="stop3750-8-9" offset="0"/><stop style="stop-color:#42baea;stop-opacity:1" id="stop3752-3-2" offset=".262"/><stop style="stop-color:#3689e6;stop-opacity:1" id="stop3754-7-2" offset=".705"/><stop style="stop-color:#2b63a0;stop-opacity:1" id="stop3756-9-3" offset="1"/></linearGradient><linearGradient id="linearGradient2867-449-88-871-390-598-476-591-434-148-57-177-1"><stop style="stop-color:#2e7555;stop-opacity:1" id="stop3752-9" offset="0"/><stop style="stop-color:#305b47;stop-opacity:1" id="stop3754-4" offset=".705"/><stop style="stop-color:#324d3c;stop-opacity:1" id="stop3756-7" offset="1"/></linearGradient><linearGradient id="linearGradient3054" x1="7.797" x2="7.797" y1="44.293" y2="4.241" gradientTransform="matrix(6.5128205,0,0,3.6410256,575.69232,680.9775)" gradientUnits="userSpaceOnUse" xlink:href="#linearGradient3707-319-631-407-324-84-4-00"/><linearGradient id="linearGradient3707-319-631-407-324-84-4-00"><stop style="stop-color:#20382a;stop-opacity:1" id="stop3760-5-17-2" offset="0"/><stop style="stop-color:#304b3a;stop-opacity:1" id="stop3762-0-1-9" offset="1"/></linearGradient><radialGradient id="radialGradient3029" cx="23.918" cy="-5.931" r="20" fx="23.918" fy="-5.931" gradientTransform="matrix(25.671465,-2.3753735e-7,-2.485044e-7,6.3802249,117.99298,783.71442)" gradientUnits="userSpaceOnUse" xlink:href="#linearGradient2867-449-88-871-390-598-476-591-434-148-57-177-1"/><linearGradient id="linearGradient3034-2-9-1-3-1" x1="41.778" x2="41.778" y1="5.769" y2="42.231" gradientTransform="matrix(6.837683,0,0,3.81089,567.8918,676.90235)" gradientUnits="userSpaceOnUse"><stop id="stop3926-9-4-9-6-9-0-8-8-4-5" offset="0" stop-color="#fff"/><stop id="stop3928-9-8-6-5-8-8-4-0-8-3" offset=".015" stop-color="#fff" stop-opacity=".235"/><stop id="stop3930-3-5-1-7-8-7-8-8-5-4" offset=".978" stop-color="#fff" stop-opacity=".157"/><stop id="stop3932-8-0-4-8-0-4-9-3-0-5" offset="1" stop-color="#fff" stop-opacity=".392"/></linearGradient><linearGradient id="linearGradient5593" x1="302.86" x2="302.86" y1="366.65" y2="609.51" gradientTransform="matrix(0.065587,0,0,0.036985,3.3658,83.447)" gradientUnits="userSpaceOnUse"><stop style="stop-color:#000;stop-opacity:0" id="stop5050" offset="0"/><stop style="stop-color:#000;stop-opacity:1" id="stop5056" offset=".5"/><stop style="stop-color:#000;stop-opacity:0" id="stop5052" offset="1"/></linearGradient><radialGradient id="radialGradient5595" cx="605.71" cy="486.65" r="117.14" gradientTransform="matrix(0.065587,0,0,0.036985,3.3787,83.447)" gradientUnits="userSpaceOnUse" xlink:href="#linearGradient5060"/><linearGradient id="linearGradient5060"><stop style="stop-color:#000;stop-opacity:1" id="stop5062" offset="0"/><stop style="stop-color:#000;stop-opacity:0" id="stop5064" offset="1"/></linearGradient><radialGradient id="radialGradient5597" cx="605.71" cy="486.65" r="117.14" gradientTransform="matrix(-0.065587,0,0,0.036985,50.763,83.447)" gradientUnits="userSpaceOnUse" xlink:href="#linearGradient5060"/><linearGradient id="linearGradient5585" x1="24.493" x2="24.978" y1="12" y2="60.894" gradientTransform="translate(-5,-5)" gradientUnits="userSpaceOnUse"><stop style="stop-color:#edd563;stop-opacity:1" id="stop4105" offset="0"/><stop style="stop-color:#e08223;stop-opacity:1" id="stop4107" offset="1"/></linearGradient><linearGradient id="linearGradient5587" x1="19.49" x2="19.66" y1="12" y2="50" gradientTransform="translate(-5,-5)" gradientUnits="userSpaceOnUse" xlink:href="#linearGradient6402"/><linearGradient id="linearGradient6402"><stop style="stop-color:#cd8033;stop-opacity:1" id="stop6404" offset="0"/><stop style="stop-color:#bb5e12;stop-opacity:1" id="stop6406" offset="1"/></linearGradient><radialGradient id="radialGradient5582" cx="10.083" cy="14.746" r="17.993" gradientTransform="matrix(0.39205,-0.026334,0.086746,1.2914,-0.32075,-9.473)" gradientUnits="userSpaceOnUse"><stop style="stop-color:#fff;stop-opacity:1" id="stop3101" offset="0"/><stop style="stop-color:#fff;stop-opacity:0" id="stop3103" offset="1"/></radialGradient><linearGradient id="linearGradient5578" x1="15.206" x2="15.206" y1="12.094" y2="49.836" gradientTransform="translate(-5,-5)" gradientUnits="userSpaceOnUse" xlink:href="#linearGradient6402"/><linearGradient id="linearGradient5574" x1="24.806" x2="25.048" y1="11.852" y2="50.124" gradientTransform="translate(-5,-5)" gradientUnits="userSpaceOnUse" xlink:href="#linearGradient6402"/><linearGradient id="linearGradient8576" x1="294.21" x2="296.4" y1="6.385" y2="9.828" gradientTransform="matrix(-2.266,1.0606,1.3034,2.8055,691.56,-311.63)" gradientUnits="userSpaceOnUse" xlink:href="#XMLID_897_"/><linearGradient id="XMLID_897_" x1="292.97" x2="296.94" y1="4.759" y2="10.711" gradientUnits="userSpaceOnUse"><stop style="stop-color:#e8e8e5;stop-opacity:1" id="stop45093" offset="0"/><stop style="stop-color:#f0f0f0;stop-opacity:1" id="stop45095" offset="1"/></linearGradient><linearGradient id="linearGradient8573" x1="20.288" x2="24.326" y1="6.46" y2="23.943" gradientTransform="matrix(0.54896,-0.25693,0.31509,0.67822,12.147,16.191)" gradientUnits="userSpaceOnUse" xlink:href="#linearGradient2229"/><linearGradient id="linearGradient2229"><stop style="stop-color:#e2e2e2;stop-opacity:1" id="stop2231" offset="0"/><stop style="stop-color:#d8d8d8;stop-opacity:1" id="stop2233" offset="1"/></linearGradient><linearGradient id="linearGradient8569" x1="293.01" x2="296.64" y1="3.019" y2="10.289" gradientTransform="matrix(2.2252,-1.0415,1.3034,2.8055,-636.93,310.15)" gradientUnits="userSpaceOnUse" xlink:href="#XMLID_897_"/><linearGradient id="linearGradient8566" x1="19.222" x2="24.326" y1="18.036" y2="23.943" gradientTransform="matrix(0.54896,-0.25693,0.31509,0.67822,12.147,16.191)" gradientUnits="userSpaceOnUse" xlink:href="#linearGradient2229"/><linearGradient id="linearGradient8582" x1="22.225" x2="24.19" y1="23.843" y2="22.861" gradientUnits="userSpaceOnUse"><stop style="stop-color:#babdb6;stop-opacity:1" id="stop695" offset="0"/><stop style="stop-color:#eeeeec;stop-opacity:1" id="stop697" offset="1"/></linearGradient><linearGradient id="linearGradient5048"><stop id="stop5050-5" offset="0" style="stop-color:#000;stop-opacity:0"/><stop id="stop5056-3" offset=".5" style="stop-color:#000;stop-opacity:1"/><stop id="stop5052-0" offset="1" style="stop-color:#000;stop-opacity:0"/></linearGradient><linearGradient id="linearGradient4017"><stop style="stop-color:#fff;stop-opacity:1" id="stop4019" offset="0"/><stop style="stop-color:#fff;stop-opacity:.23529412" id="stop4021" offset=".496"/><stop style="stop-color:#fff;stop-opacity:.15686275" id="stop4023" offset=".88"/><stop style="stop-color:#fff;stop-opacity:.39215687" id="stop4025" offset="1"/></linearGradient><linearGradient id="linearGradient9165-5-1"><stop style="stop-color:#acb9bf;stop-opacity:1" id="stop9167-7-12" offset="0"/><stop style="stop-color:#acb9bf;stop-opacity:0" id="stop9169-0-4" offset="1"/></linearGradient><linearGradient id="linearGradient9165-59"><stop style="stop-color:#b6c5cc;stop-opacity:1" id="stop9167-6" offset="0"/><stop style="stop-color:#e5f0f6;stop-opacity:0" id="stop9169-9" offset="1"/></linearGradient><linearGradient id="linearGradient4747-3"><stop style="stop-color:#fff;stop-opacity:1" id="stop4749-7" offset="0"/><stop style="stop-color:#f7f7f7;stop-opacity:1" id="stop9072-8" offset=".5"/><stop style="stop-color:#dbe0e1;stop-opacity:1" id="stop4751-3" offset="1"/></linearGradient><radialGradient id="radialGradient3176" cx="4.993" cy="43.5" r="2.5" fx="4.993" fy="43.5" gradientTransform="matrix(2.003784,0,0,1.4,27.98813,-17.4)" gradientUnits="userSpaceOnUse" xlink:href="#linearGradient5060"/><radialGradient id="radialGradient3178-1" cx="4.993" cy="43.5" r="2.5" fx="4.993" fy="43.5" gradientTransform="matrix(2.003784,0,0,1.4,-20.01187,-104.4)" gradientUnits="userSpaceOnUse" xlink:href="#linearGradient5060"/><linearGradient id="linearGradient3180" x1="25.058" x2="25.058" y1="47.028" y2="39.999" gradientUnits="userSpaceOnUse" xlink:href="#linearGradient5048"/><linearGradient id="linearGradient3027" x1="20.154" x2="20.154" y1="3.022" y2="26.667" gradientTransform="matrix(1.5,0,0,1.5,0,3)" gradientUnits="userSpaceOnUse" xlink:href="#linearGradient4017"/><radialGradient id="radialGradient3030" cx="680.566" cy="365.658" r="12.053" fx="681.326" fy="354.216" gradientTransform="matrix(0.67017445,0,0,0.66431941,-442.4542,-222.96901)" gradientUnits="userSpaceOnUse" xlink:href="#linearGradient9165-5-1"/><radialGradient id="radialGradient3033" cx="680.566" cy="365.658" r="12.053" fx="680.602" fy="355.258" gradientTransform="matrix(0.89890757,0,0,0.89105416,-583.73217,-308.42536)" gradientUnits="userSpaceOnUse" xlink:href="#linearGradient9165-59"/><radialGradient id="radialGradient3037" cx="676" cy="-233.5" r="29.5" fx="680.406" fy="-249.594" gradientTransform="matrix(1.2135145,2.8220341e-8,-2.3221845e-8,0.97608755,-796.33575,253.41642)" gradientUnits="userSpaceOnUse" xlink:href="#linearGradient4747-3"/><linearGradient id="linearGradient4526" osb:paint="solid"><stop style="stop-color:#fff;stop-opacity:1" id="stop4528" offset="0"/></linearGradient><linearGradient id="linearGradient4259"><stop id="stop4261" offset="0" style="stop-color:#fff;stop-opacity:1"/><stop id="stop4263" offset="1" style="stop-color:#fff;stop-opacity:0"/></linearGradient><linearGradient id="linearGradient4340" x1="37.5" x2="49.09" y1="23" y2="23.173" gradientTransform="matrix(0.91421579,0,0,-0.91421579,0.7038908,45.027255)" gradientUnits="userSpaceOnUse" xlink:href="#linearGradient4259"/><linearGradient id="linearGradient4344" x1="4.49" x2="47.5" y1="23" y2="23" gradientTransform="matrix(0.91421579,0,0,-0.91421579,0.7038908,45.027255)" gradientUnits="userSpaceOnUse" xlink:href="#linearGradient4259"/><linearGradient id="linearGradient4347" x1="14.893" x2="2.832" y1="23.707" y2="24.109" gradientTransform="matrix(0.64644818,-0.64644818,-0.64644818,-0.64644818,22.231006,55.436572)" gradientUnits="userSpaceOnUse" xlink:href="#linearGradient4259"/><linearGradient id="linearGradient4351" x1="44.687" x2="2.873" y1="25.924" y2="24.414" gradientTransform="matrix(0.64644818,-0.64644818,-0.64644818,-0.64644818,22.231006,55.436572)" gradientUnits="userSpaceOnUse" xlink:href="#linearGradient4259"/><linearGradient id="linearGradient4355" x1="46.006" x2="4.287" y1="23.707" y2="27.243" gradientTransform="matrix(0.64644818,0.64644818,-0.64644818,0.64644818,22.400273,-7.35245)" gradientUnits="userSpaceOnUse" xlink:href="#linearGradient4259"/><linearGradient id="linearGradient4358" x1="14.893" x2="4.063" y1="22.293" y2="21.83" gradientTransform="matrix(0.64644818,0.64644818,-0.64644818,0.64644818,22.400273,-7.35245)" gradientUnits="userSpaceOnUse" xlink:href="#linearGradient4259"/><linearGradient id="linearGradient4362" x1="3.5" x2="47.5" y1="23" y2="23" gradientTransform="matrix(0,0.91421579,0.91421579,0,2.9894266,0.6877848)" gradientUnits="userSpaceOnUse" xlink:href="#linearGradient4259"/><linearGradient id="linearGradient4365" x1="35.5" x2="48.263" y1="22" y2="21.914" gradientTransform="matrix(0,0.91421579,0.91421579,0,2.9894266,0.6877848)" gradientUnits="userSpaceOnUse" xlink:href="#linearGradient4259"/><linearGradient id="linearGradient3034-2-9-1-3-9" x1="41.778" x2="41.778" y1="5.769" y2="42.231" gradientTransform="matrix(6.837683,0,0,3.81089,275.8918,856.9023)" gradientUnits="userSpaceOnUse"><stop id="stop3926-9-4-9-6-9-0-8-8-4-0" offset="0" stop-color="#fff"/><stop id="stop3928-9-8-6-5-8-8-4-0-8-7" offset=".015" stop-color="#fff" stop-opacity=".235"/><stop id="stop3930-3-5-1-7-8-7-8-8-5-7" offset=".978" stop-color="#fff" stop-opacity=".157"/><stop id="stop3932-8-0-4-8-0-4-9-3-0-3" offset="1" stop-color="#fff" stop-opacity=".392"/></linearGradient><linearGradient id="linearGradient3178" x1="71.204" x2="71.204" y1="6.238" y2="44.341" gradientTransform="matrix(1.054054,0,0,1.054054,290.38899,565.63413)" gradientUnits="userSpaceOnUse" xlink:href="#linearGradient4011"/><linearGradient id="linearGradient4011"><stop style="stop-color:#fff;stop-opacity:1" id="stop4013" offset="0"/><stop style="stop-color:#fff;stop-opacity:.23529412" id="stop4015" offset=".508"/><stop style="stop-color:#fff;stop-opacity:.15686275" id="stop4017" offset=".835"/><stop style="stop-color:#fff;stop-opacity:.39215687" id="stop4019-2" offset="1"/></linearGradient><linearGradient id="linearGradient3187" x1="38.977" x2="38.977" y1="59.968" y2="8.093" gradientTransform="matrix(0.78431374,0,0,0.78431374,340.90196,565.69537)" gradientUnits="userSpaceOnUse" xlink:href="#linearGradient4215"/><linearGradient id="linearGradient4215"><stop style="stop-color:#dcdcdc;stop-opacity:1" id="stop4217" offset="0"/><stop style="stop-color:#f0f0f0;stop-opacity:1" id="stop4219" offset="1"/></linearGradient><radialGradient id="radialGradient4100" cx="62.625" cy="4.625" r="10.625" fx="62.625" fy="4.625" gradientTransform="matrix(2.1647059,0,0,0.7529402,230.43529,603.87968)" gradientUnits="userSpaceOnUse" xlink:href="#linearGradient5060"/><linearGradient id="linearGradient3034-2-7-6" x1="41.778" x2="41.778" y1="5.769" y2="42.231" gradientTransform="matrix(6.837683,0,0,3.81089,568.89179,854.90227)" gradientUnits="userSpaceOnUse"><stop id="stop3926-9-4-9-6-9-0-9-9" offset="0" stop-color="#fff"/><stop id="stop3928-9-8-6-5-8-8-7-2" offset=".015" stop-color="#fff" stop-opacity=".235"/><stop id="stop3930-3-5-1-7-8-7-9-1" offset=".978" stop-color="#fff" stop-opacity=".157"/><stop id="stop3932-8-0-4-8-0-4-0-8" offset="1" stop-color="#fff" stop-opacity=".392"/></linearGradient><linearGradient id="linearGradient5647" x1="60.944" x2="60.944" y1="203.431" y2="167.209" gradientTransform="translate(-3,263.61792)" gradientUnits="userSpaceOnUse" xlink:href="#linearGradient5968"/><linearGradient id="linearGradient5647-3" x1="60.944" x2="60.944" y1="203.431" y2="156.86" gradientTransform="translate(17,263.61792)" gradientUnits="userSpaceOnUse" xlink:href="#linearGradient5968"/><linearGradient id="linearGradient5647-3-0" x1="60.944" x2="60.944" y1="203.431" y2="124.871" gradientTransform="translate(37,263.61792)" gradientUnits="userSpaceOnUse" xlink:href="#linearGradient5968"/><linearGradient id="linearGradient5647-3-0-4" x1="60.944" x2="60.944" y1="203.431" y2="153.096" gradientTransform="translate(57,263.61792)" gradientUnits="userSpaceOnUse" xlink:href="#linearGradient5968"/><linearGradient id="linearGradient5647-3-0-4-2" x1="60.944" x2="60.944" y1="203.431" y2="97.587" gradientTransform="translate(77,263.61792)" gradientUnits="userSpaceOnUse" xlink:href="#linearGradient5968"/><linearGradient id="linearGradient5647-3-0-4-2-6" x1="60.944" x2="60.944" y1="203.431" y2="110.758" gradientTransform="translate(97,263.61792)" gradientUnits="userSpaceOnUse" xlink:href="#linearGradient5968"/><linearGradient id="linearGradient5647-3-0-4-2-6-0" x1="60.944" x2="60.944" y1="203.431" y2="117.344" gradientTransform="translate(117,263.61792)" gradientUnits="userSpaceOnUse" xlink:href="#linearGradient5968"/><linearGradient id="linearGradient5647-3-0-4-2-6-0-9" x1="60.944" x2="60.944" y1="203.431" y2="137.102" gradientTransform="translate(137,263.61792)" gradientUnits="userSpaceOnUse" xlink:href="#linearGradient5968"/><linearGradient id="linearGradient5647-3-0-4-2-6-0-9-0" x1="60.944" x2="60.944" y1="203.431" y2="121.108" gradientTransform="translate(157,263.61792)" gradientUnits="userSpaceOnUse" xlink:href="#linearGradient5968"/><linearGradient id="linearGradient5647-3-0-4-2-6-0-9-0-5" x1="60.944" x2="60.944" y1="203.431" y2="149.333" gradientTransform="translate(177,263.61792)" gradientUnits="userSpaceOnUse" xlink:href="#linearGradient5968"/><linearGradient id="linearGradient5647-3-0-4-2-6-0-9-0-0" x1="60.944" x2="60.944" y1="203.431" y2="171.913" gradientTransform="translate(197,263.61792)" gradientUnits="userSpaceOnUse" xlink:href="#linearGradient5968"/><linearGradient id="linearGradient5647-3-0-4-2-6-0-9-0-0-8" x1="60.944" x2="60.944" y1="203.431" y2="171.913" gradientTransform="translate(197,262.61789)" gradientUnits="userSpaceOnUse" xlink:href="#linearGradient6209"/><linearGradient id="linearGradient5647-3-0-4-2-6-0-9-0-5-3" x1="60.944" x2="60.944" y1="203.431" y2="149.333" gradientTransform="translate(177,262.61789)" gradientUnits="userSpaceOnUse" xlink:href="#linearGradient6209"/><linearGradient id="linearGradient5647-3-0-4-2-6-0-9-0-3" x1="60.944" x2="60.944" y1="203.431" y2="121.108" gradientTransform="translate(157,262.61789)" gradientUnits="userSpaceOnUse" xlink:href="#linearGradient6209"/><linearGradient id="linearGradient5647-3-0-4-2-6-0-9-05" x1="60.944" x2="60.944" y1="203.431" y2="137.102" gradientTransform="translate(137,262.61789)" gradientUnits="userSpaceOnUse" xlink:href="#linearGradient6209"/><linearGradient id="linearGradient5647-3-0-4-2-6-0-94" x1="60.944" x2="60.944" y1="203.431" y2="117.344" gradientTransform="translate(117,262.61789)" gradientUnits="userSpaceOnUse" xlink:href="#linearGradient6209"/><linearGradient id="linearGradient5647-3-0-4-2-6-3" x1="60.944" x2="60.944" y1="203.431" y2="110.758" gradientTransform="translate(97,262.61789)" gradientUnits="userSpaceOnUse" xlink:href="#linearGradient6209"/><linearGradient id="linearGradient5647-3-0-4-2-65" x1="60.944" x2="60.944" y1="203.431" y2="97.587" gradientTransform="translate(77,262.61789)" gradientUnits="userSpaceOnUse" xlink:href="#linearGradient6209"/><linearGradient id="linearGradient5647-3-0-4-5" x1="60.944" x2="60.944" y1="203.431" y2="153.096" gradientTransform="translate(57,262.61789)" gradientUnits="userSpaceOnUse" xlink:href="#linearGradient6209"/><linearGradient id="linearGradient5647-3-0-41" x1="60.944" x2="60.944" y1="203.431" y2="124.871" gradientTransform="translate(37,262.61789)" gradientUnits="userSpaceOnUse" xlink:href="#linearGradient6209"/><linearGradient id="linearGradient5647-3-4" x1="60.944" x2="60.944" y1="203.431" y2="156.86" gradientTransform="translate(17,262.61789)" gradientUnits="userSpaceOnUse" xlink:href="#linearGradient6209"/><linearGradient id="linearGradient5647-35-4" x1="60.944" x2="60.944" y1="203.431" y2="167.209" gradientTransform="translate(-3,262.61789)" gradientUnits="userSpaceOnUse" xlink:href="#linearGradient6209"/><linearGradient id="linearGradient5313" x1="24" x2="24" y1="5" y2="43" gradientTransform="translate(46.000004,1.00001)" gradientUnits="userSpaceOnUse" xlink:href="#linearGradient3924-9-5"/><linearGradient id="linearGradient3924-9-5"><stop style="stop-color:#fff;stop-opacity:1" id="stop3926-2-0" offset="0"/><stop style="stop-color:#fff;stop-opacity:.23529412" id="stop3928-2-0" offset=".063"/><stop style="stop-color:#fff;stop-opacity:.15686275" id="stop3930-6-1" offset=".951"/><stop style="stop-color:#fff;stop-opacity:.39215687" id="stop3932-1-6" offset="1"/></linearGradient><radialGradient id="radialGradient5232" cx="11.546" cy="8.45" r="20" fx="11.546" fy="8.45" gradientTransform="matrix(1.942847e-8,2.3369903,-2.4722571,-4.3056281e-8,90.890112,-11.434803)" gradientUnits="userSpaceOnUse" xlink:href="#linearGradient2867-449-88-871-390-598-476-591-434-148-57-177-7-4-9-9-2-2-0-8-0"/><linearGradient id="linearGradient2867-449-88-871-390-598-476-591-434-148-57-177-7-4-9-9-2-2-0-8-0"><stop style="stop-color:#54bfec;stop-opacity:1" id="stop3750-6-3-7-0-5-3-5-7" offset="0"/><stop style="stop-color:#55c1ec;stop-opacity:1" id="stop3752-3-7-7-6-4-4-3-4" offset=".262"/><stop style="stop-color:#3689e6;stop-opacity:1" id="stop3754-1-7-4-6-36-7-7-2-4" offset=".705"/><stop style="stop-color:#2b63a0;stop-opacity:1" id="stop3756-7-5-7-1-4-3-1-7" offset="1"/></linearGradient><linearGradient id="linearGradient5234" x1="24" x2="24" y1="44" y2="3.899" gradientTransform="translate(46.000002,0.9999993)" gradientUnits="userSpaceOnUse" xlink:href="#linearGradient3707-319-631-407-324-3-2-9"/><linearGradient id="linearGradient3707-319-631-407-324-3-2-9"><stop style="stop-color:#1e74bc;stop-opacity:1" id="stop3760-3-9-5" offset="0"/><stop style="stop-color:#3fa8ea;stop-opacity:1" id="stop3762-0-8-9" offset="1"/></linearGradient><radialGradient id="radialGradient3013" cx="4.993" cy="43.5" r="2.5" fx="4.993" fy="43.5" gradientTransform="matrix(2.003784,0,0,1.4,27.98813,-17.4)" gradientUnits="userSpaceOnUse" xlink:href="#linearGradient3688-166-749"/><linearGradient id="linearGradient3688-166-749"><stop style="stop-color:#181818;stop-opacity:1" id="stop2883" offset="0"/><stop style="stop-color:#181818;stop-opacity:0" id="stop2885" offset="1"/></linearGradient><radialGradient id="radialGradient3015" cx="4.993" cy="43.5" r="2.5" fx="4.993" fy="43.5" gradientTransform="matrix(2.003784,0,0,1.4,-20.01187,-104.4)" gradientUnits="userSpaceOnUse" xlink:href="#linearGradient3688-166-749"/><linearGradient id="linearGradient3702-501-757"><stop style="stop-color:#181818;stop-opacity:0" id="stop2895" offset="0"/><stop style="stop-color:#181818;stop-opacity:1" id="stop2897" offset=".5"/><stop style="stop-color:#181818;stop-opacity:0" id="stop2899" offset="1"/></linearGradient><linearGradient id="linearGradient5388" x1="25.058" x2="25.058" y1="47.028" y2="39.999" gradientUnits="userSpaceOnUse" xlink:href="#linearGradient3702-501-757"/><filter id="filter7554" style="color-interpolation-filters:sRGB"><feBlend id="feBlend7556" in2="BackgroundImage" mode="darken"/></filter><filter id="filter7554-7" style="color-interpolation-filters:sRGB"><feBlend id="feBlend7556-6" in2="BackgroundImage" mode="darken"/></filter><linearGradient id="linearGradient5606" osb:paint="solid"><stop style="stop-color:#000;stop-opacity:1" id="stop5608" offset="0"/></linearGradient><filter id="filter7554-6" style="color-interpolation-filters:sRGB"><feBlend id="feBlend7556-9" in2="BackgroundImage" mode="darken"/></filter><filter id="filter7554-8" style="color-interpolation-filters:sRGB"><feBlend id="feBlend7556-2" in2="BackgroundImage" mode="darken"/></filter></defs><metadata id="metadata7"/><g id="layer1" transform="matrix(1.9999994,0,0,1.9999994,-93.999972,-720.72384)"><path style="color:#000;clip-rule:nonzero;display:inline;overflow:visible;visibility:visible;opacity:1;isolation:auto;mix-blend-mode:normal;color-interpolation:sRGB;color-interpolation-filters:linearRGB;solid-color:#000;solid-opacity:1;fill:url(#linearGradient5647);fill-opacity:1;fill-rule:nonzero;stroke:none;stroke-width:2.75;stroke-linecap:butt;stroke-linejoin:miter;stroke-miterlimit:4;stroke-dasharray:none;stroke-dashoffset:0;stroke-opacity:1;marker:none;color-rendering:auto;image-rendering:auto;shape-rendering:auto;text-rendering:auto;enable-background:accumulate" id="rect3780-35-1-4-6-7-7-5-0-4-7-8-0-1-8-4" d="m 47,361.36206 0,10 18,0 0,-10 -18,0 z m 0,12 0,10 18,0 0,-10 -18,0 z m 0,12 0,10 18,0 0,-10 -18,0 z m 0,12 0,10 18,0 0,-10 -18,0 z m 0,12 0,10 18,0 0,-10 -18,0 z m 0,12 0,10 18,0 0,-10 -18,0 z m 0,12 0,10 18,0 0,-10 -18,0 z m 0,12 0,10 18,0 0,-10 -18,0 z m 0,12 0,10 18,0 0,-10 -18,0 z"/><path style="color:#000;clip-rule:nonzero;display:inline;overflow:visible;visibility:visible;opacity:1;isolation:auto;mix-blend-mode:normal;color-interpolation:sRGB;color-interpolation-filters:linearRGB;solid-color:#000;solid-opacity:1;fill:url(#linearGradient5647-3);fill-opacity:1;fill-rule:nonzero;stroke:none;stroke-width:2.75;stroke-linecap:butt;stroke-linejoin:miter;stroke-miterlimit:4;stroke-dasharray:none;stroke-dashoffset:0;stroke-opacity:1;marker:none;color-rendering:auto;image-rendering:auto;shape-rendering:auto;text-rendering:auto;enable-background:accumulate" id="rect3780-35-1-4-6-7-7-5-0-4-7-8-0-1-8-4-3" d="m 67,361.36206 0,10 18,0 0,-10 -18,0 z m 0,12 0,10 18,0 0,-10 -18,0 z m 0,12 0,10 18,0 0,-10 -18,0 z m 0,12 0,10 18,0 0,-10 -18,0 z m 0,12 0,10 18,0 0,-10 -18,0 z m 0,12 0,10 18,0 0,-10 -18,0 z m 0,12 0,10 18,0 0,-10 -18,0 z m 0,12 0,10 18,0 0,-10 -18,0 z m 0,12 0,10 18,0 0,-10 -18,0 z"/><path style="color:#000;clip-rule:nonzero;display:inline;overflow:visible;visibility:visible;opacity:1;isolation:auto;mix-blend-mode:normal;color-interpolation:sRGB;color-interpolation-filters:linearRGB;solid-color:#000;solid-opacity:1;fill:url(#linearGradient5647-3-0);fill-opacity:1;fill-rule:nonzero;stroke:none;stroke-width:2.75;stroke-linecap:butt;stroke-linejoin:miter;stroke-miterlimit:4;stroke-dasharray:none;stroke-dashoffset:0;stroke-opacity:1;marker:none;color-rendering:auto;image-rendering:auto;shape-rendering:auto;text-rendering:auto;enable-background:accumulate" id="rect3780-35-1-4-6-7-7-5-0-4-7-8-0-1-8-4-3-7" d="m 87,361.36206 0,10 18,0 0,-10 -18,0 z m 0,12 0,10 18,0 0,-10 -18,0 z m 0,12 0,10 18,0 0,-10 -18,0 z m 0,12 0,10 18,0 0,-10 -18,0 z m 0,12 0,10 18,0 0,-10 -18,0 z m 0,12 0,10 18,0 0,-10 -18,0 z m 0,12 0,10 18,0 0,-10 -18,0 z m 0,12 0,10 18,0 0,-10 -18,0 z m 0,12 0,10 18,0 0,-10 -18,0 z"/><path style="color:#000;clip-rule:nonzero;display:inline;overflow:visible;visibility:visible;opacity:1;isolation:auto;mix-blend-mode:normal;color-interpolation:sRGB;color-interpolation-filters:linearRGB;solid-color:#000;solid-opacity:1;fill:url(#linearGradient5647-3-0-4);fill-opacity:1;fill-rule:nonzero;stroke:none;stroke-width:2.75;stroke-linecap:butt;stroke-linejoin:miter;stroke-miterlimit:4;stroke-dasharray:none;stroke-dashoffset:0;stroke-opacity:1;marker:none;color-rendering:auto;image-rendering:auto;shape-rendering:auto;text-rendering:auto;enable-background:accumulate" id="rect3780-35-1-4-6-7-7-5-0-4-7-8-0-1-8-4-3-7-0" d="m 107,361.36206 0,10 18,0 0,-10 -18,0 z m 0,12 0,10 18,0 0,-10 -18,0 z m 0,12 0,10 18,0 0,-10 -18,0 z m 0,12 0,10 18,0 0,-10 -18,0 z m 0,12 0,10 18,0 0,-10 -18,0 z m 0,12 0,10 18,0 0,-10 -18,0 z m 0,12 0,10 18,0 0,-10 -18,0 z m 0,12 0,10 18,0 0,-10 -18,0 z m 0,12 0,10 18,0 0,-10 -18,0 z"/><path style="color:#000;clip-rule:nonzero;display:inline;overflow:visible;visibility:visible;opacity:1;isolation:auto;mix-blend-mode:normal;color-interpolation:sRGB;color-interpolation-filters:linearRGB;solid-color:#000;solid-opacity:1;fill:url(#linearGradient5647-3-0-4-2);fill-opacity:1;fill-rule:nonzero;stroke:none;stroke-width:2.75;stroke-linecap:butt;stroke-linejoin:miter;stroke-miterlimit:4;stroke-dasharray:none;stroke-dashoffset:0;stroke-opacity:1;marker:none;color-rendering:auto;image-rendering:auto;shape-rendering:auto;text-rendering:auto;enable-background:accumulate" id="rect3780-35-1-4-6-7-7-5-0-4-7-8-0-1-8-4-3-7-0-2" d="m 127,361.36206 0,10 18,0 0,-10 -18,0 z m 0,12 0,10 18,0 0,-10 -18,0 z m 0,12 0,10 18,0 0,-10 -18,0 z m 0,12 0,10 18,0 0,-10 -18,0 z m 0,12 0,10 18,0 0,-10 -18,0 z m 0,12 0,10 18,0 0,-10 -18,0 z m 0,12 0,10 18,0 0,-10 -18,0 z m 0,12 0,10 18,0 0,-10 -18,0 z m 0,12 0,10 18,0 0,-10 -18,0 z"/><path style="color:#000;clip-rule:nonzero;display:inline;overflow:visible;visibility:visible;opacity:1;isolation:auto;mix-blend-mode:normal;color-interpolation:sRGB;color-interpolation-filters:linearRGB;solid-color:#000;solid-opacity:1;fill:url(#linearGradient5647-3-0-4-2-6);fill-opacity:1;fill-rule:nonzero;stroke:none;stroke-width:2.75;stroke-linecap:butt;stroke-linejoin:miter;stroke-miterlimit:4;stroke-dasharray:none;stroke-dashoffset:0;stroke-opacity:1;marker:none;color-rendering:auto;image-rendering:auto;shape-rendering:auto;text-rendering:auto;enable-background:accumulate" id="rect3780-35-1-4-6-7-7-5-0-4-7-8-0-1-8-4-3-7-0-2-5" d="m 147,361.36206 0,10 18,0 0,-10 -18,0 z m 0,12 0,10 18,0 0,-10 -18,0 z m 0,12 0,10 18,0 0,-10 -18,0 z m 0,12 0,10 18,0 0,-10 -18,0 z m 0,12 0,10 18,0 0,-10 -18,0 z m 0,12 0,10 18,0 0,-10 -18,0 z m 0,12 0,10 18,0 0,-10 -18,0 z m 0,12 0,10 18,0 0,-10 -18,0 z m 0,12 0,10 18,0 0,-10 -18,0 z"/><path style="color:#000;clip-rule:nonzero;display:inline;overflow:visible;visibility:visible;opacity:1;isolation:auto;mix-blend-mode:normal;color-interpolation:sRGB;color-interpolation-filters:linearRGB;solid-color:#000;solid-opacity:1;fill:url(#linearGradient5647-3-0-4-2-6-0);fill-opacity:1;fill-rule:nonzero;stroke:none;stroke-width:2.75;stroke-linecap:butt;stroke-linejoin:miter;stroke-miterlimit:4;stroke-dasharray:none;stroke-dashoffset:0;stroke-opacity:1;marker:none;color-rendering:auto;image-rendering:auto;shape-rendering:auto;text-rendering:auto;enable-background:accumulate" id="rect3780-35-1-4-6-7-7-5-0-4-7-8-0-1-8-4-3-7-0-2-5-4" d="m 167,361.36206 0,10 18,0 0,-10 -18,0 z m 0,12 0,10 18,0 0,-10 -18,0 z m 0,12 0,10 18,0 0,-10 -18,0 z m 0,12 0,10 18,0 0,-10 -18,0 z m 0,12 0,10 18,0 0,-10 -18,0 z m 0,12 0,10 18,0 0,-10 -18,0 z m 0,12 0,10 18,0 0,-10 -18,0 z m 0,12 0,10 18,0 0,-10 -18,0 z m 0,12 0,10 18,0 0,-10 -18,0 z"/><path style="color:#000;clip-rule:nonzero;display:inline;overflow:visible;visibility:visible;opacity:1;isolation:auto;mix-blend-mode:normal;color-interpolation:sRGB;color-interpolation-filters:linearRGB;solid-color:#000;solid-opacity:1;fill:url(#linearGradient5647-3-0-4-2-6-0-9);fill-opacity:1;fill-rule:nonzero;stroke:none;stroke-width:2.75;stroke-linecap:butt;stroke-linejoin:miter;stroke-miterlimit:4;stroke-dasharray:none;stroke-dashoffset:0;stroke-opacity:1;marker:none;color-rendering:auto;image-rendering:auto;shape-rendering:auto;text-rendering:auto;enable-background:accumulate" id="rect3780-35-1-4-6-7-7-5-0-4-7-8-0-1-8-4-3-7-0-2-5-4-1" d="m 187,361.36206 0,10 18,0 0,-10 -18,0 z m 0,12 0,10 18,0 0,-10 -18,0 z m 0,12 0,10 18,0 0,-10 -18,0 z m 0,12 0,10 18,0 0,-10 -18,0 z m 0,12 0,10 18,0 0,-10 -18,0 z m 0,12 0,10 18,0 0,-10 -18,0 z m 0,12 0,10 18,0 0,-10 -18,0 z m 0,12 0,10 18,0 0,-10 -18,0 z m 0,12 0,10 18,0 0,-10 -18,0 z"/><path style="color:#000;clip-rule:nonzero;display:inline;overflow:visible;visibility:visible;opacity:1;isolation:auto;mix-blend-mode:normal;color-interpolation:sRGB;color-interpolation-filters:linearRGB;solid-color:#000;solid-opacity:1;fill:url(#linearGradient5647-3-0-4-2-6-0-9-0);fill-opacity:1;fill-rule:nonzero;stroke:none;stroke-width:2.75;stroke-linecap:butt;stroke-linejoin:miter;stroke-miterlimit:4;stroke-dasharray:none;stroke-dashoffset:0;stroke-opacity:1;marker:none;color-rendering:auto;image-rendering:auto;shape-rendering:auto;text-rendering:auto;enable-background:accumulate" id="rect3780-35-1-4-6-7-7-5-0-4-7-8-0-1-8-4-3-7-0-2-5-4-1-6" d="m 207,361.36206 0,10 18,0 0,-10 -18,0 z m 0,12 0,10 18,0 0,-10 -18,0 z m 0,12 0,10 18,0 0,-10 -18,0 z m 0,12 0,10 18,0 0,-10 -18,0 z m 0,12 0,10 18,0 0,-10 -18,0 z m 0,12 0,10 18,0 0,-10 -18,0 z m 0,12 0,10 18,0 0,-10 -18,0 z m 0,12 0,10 18,0 0,-10 -18,0 z m 0,12 0,10 18,0 0,-10 -18,0 z"/><path style="color:#000;clip-rule:nonzero;display:inline;overflow:visible;visibility:visible;opacity:1;isolation:auto;mix-blend-mode:normal;color-interpolation:sRGB;color-interpolation-filters:linearRGB;solid-color:#000;solid-opacity:1;fill:url(#linearGradient5647-3-0-4-2-6-0-9-0-5);fill-opacity:1;fill-rule:nonzero;stroke:none;stroke-width:2.75;stroke-linecap:butt;stroke-linejoin:miter;stroke-miterlimit:4;stroke-dasharray:none;stroke-dashoffset:0;stroke-opacity:1;marker:none;color-rendering:auto;image-rendering:auto;shape-rendering:auto;text-rendering:auto;enable-background:accumulate" id="rect3780-35-1-4-6-7-7-5-0-4-7-8-0-1-8-4-3-7-0-2-5-4-1-6-7" d="m 227,361.36206 0,10 18,0 0,-10 -18,0 z m 0,12 0,10 18,0 0,-10 -18,0 z m 0,12 0,10 18,0 0,-10 -18,0 z m 0,12 0,10 18,0 0,-10 -18,0 z m 0,12 0,10 18,0 0,-10 -18,0 z m 0,12 0,10 18,0 0,-10 -18,0 z m 0,12 0,10 18,0 0,-10 -18,0 z m 0,12 0,10 18,0 0,-10 -18,0 z m 0,12 0,10 18,0 0,-10 -18,0 z"/><path style="color:#000;clip-rule:nonzero;display:inline;overflow:visible;visibility:visible;opacity:1;isolation:auto;mix-blend-mode:normal;color-interpolation:sRGB;color-interpolation-filters:linearRGB;solid-color:#000;solid-opacity:1;fill:url(#linearGradient5647-3-0-4-2-6-0-9-0-0);fill-opacity:1;fill-rule:nonzero;stroke:none;stroke-width:2.75;stroke-linecap:butt;stroke-linejoin:miter;stroke-miterlimit:4;stroke-dasharray:none;stroke-dashoffset:0;stroke-opacity:1;marker:none;color-rendering:auto;image-rendering:auto;shape-rendering:auto;text-rendering:auto;enable-background:accumulate" id="rect3780-35-1-4-6-7-7-5-0-4-7-8-0-1-8-4-3-7-0-2-5-4-1-6-6" d="m 247,361.36206 0,10 18,0 0,-10 -18,0 z m 0,12 0,10 18,0 0,-10 -18,0 z m 0,12 0,10 18,0 0,-10 -18,0 z m 0,12 0,10 18,0 0,-10 -18,0 z m 0,12 0,10 18,0 0,-10 -18,0 z m 0,12 0,10 18,0 0,-10 -18,0 z m 0,12 0,10 18,0 0,-10 -18,0 z m 0,12 0,10 18,0 0,-10 -18,0 z m 0,12 0,10 18,0 0,-10 -18,0 z"/><path style="color:#000;clip-rule:nonzero;display:inline;overflow:visible;visibility:visible;opacity:.4;isolation:auto;mix-blend-mode:normal;color-interpolation:sRGB;color-interpolation-filters:linearRGB;solid-color:#000;solid-opacity:1;fill:url(#linearGradient5647-3-4);fill-opacity:1;fill-rule:nonzero;stroke:none;stroke-width:2.75;stroke-linecap:butt;stroke-linejoin:miter;stroke-miterlimit:4;stroke-dasharray:none;stroke-dashoffset:0;stroke-opacity:1;marker:none;color-rendering:auto;image-rendering:auto;shape-rendering:auto;text-rendering:auto;enable-background:accumulate" id="rect3780-35-1-4-6-7-7-5-0-4-7-8-0-1-8-4-3-5" d="m 67,360.36203 0,10 18,0 0,-10 -18,0 z m 0,12 0,10 18,0 0,-10 -18,0 z m 0,12 0,10 18,0 0,-10 -18,0 z m 0,12 0,10 18,0 0,-10 -18,0 z m 0,12 0,10 18,0 0,-10 -18,0 z m 0,12 0,10 18,0 0,-10 -18,0 z m 0,12 0,10 18,0 0,-10 -18,0 z m 0,12 0,10 18,0 0,-10 -18,0 z m 0,12 0,10 18,0 0,-10 -18,0 z"/><path style="color:#000;clip-rule:nonzero;display:inline;overflow:visible;visibility:visible;opacity:.5;isolation:auto;mix-blend-mode:normal;color-interpolation:sRGB;color-interpolation-filters:linearRGB;solid-color:#000;solid-opacity:1;fill:url(#linearGradient5647-3-0-41);fill-opacity:1;fill-rule:nonzero;stroke:none;stroke-width:2.75;stroke-linecap:butt;stroke-linejoin:miter;stroke-miterlimit:4;stroke-dasharray:none;stroke-dashoffset:0;stroke-opacity:1;marker:none;color-rendering:auto;image-rendering:auto;shape-rendering:auto;text-rendering:auto;enable-background:accumulate" id="rect3780-35-1-4-6-7-7-5-0-4-7-8-0-1-8-4-3-7-6" d="m 87,360.36203 0,10 18,0 0,-10 -18,0 z m 0,12 0,10 18,0 0,-10 -18,0 z m 0,12 0,10 18,0 0,-10 -18,0 z m 0,12 0,10 18,0 0,-10 -18,0 z m 0,12 0,10 18,0 0,-10 -18,0 z m 0,12 0,10 18,0 0,-10 -18,0 z m 0,12 0,10 18,0 0,-10 -18,0 z m 0,12 0,10 18,0 0,-10 -18,0 z m 0,12 0,10 18,0 0,-10 -18,0 z"/><path style="color:#000;clip-rule:nonzero;display:inline;overflow:visible;visibility:visible;opacity:.45;isolation:auto;mix-blend-mode:normal;color-interpolation:sRGB;color-interpolation-filters:linearRGB;solid-color:#000;solid-opacity:1;fill:url(#linearGradient5647-3-0-4-5);fill-opacity:1;fill-rule:nonzero;stroke:none;stroke-width:2.75;stroke-linecap:butt;stroke-linejoin:miter;stroke-miterlimit:4;stroke-dasharray:none;stroke-dashoffset:0;stroke-opacity:1;marker:none;color-rendering:auto;image-rendering:auto;shape-rendering:auto;text-rendering:auto;enable-background:accumulate" id="rect3780-35-1-4-6-7-7-5-0-4-7-8-0-1-8-4-3-7-0-0" d="m 107,360.36203 0,10 18,0 0,-10 -18,0 z m 0,12 0,10 18,0 0,-10 -18,0 z m 0,12 0,10 18,0 0,-10 -18,0 z m 0,12 0,10 18,0 0,-10 -18,0 z m 0,12 0,10 18,0 0,-10 -18,0 z m 0,12 0,10 18,0 0,-10 -18,0 z m 0,12 0,10 18,0 0,-10 -18,0 z m 0,12 0,10 18,0 0,-10 -18,0 z m 0,12 0,10 18,0 0,-10 -18,0 z"/><path style="color:#000;clip-rule:nonzero;display:inline;overflow:visible;visibility:visible;opacity:.5;isolation:auto;mix-blend-mode:normal;color-interpolation:sRGB;color-interpolation-filters:linearRGB;solid-color:#000;solid-opacity:1;fill:url(#linearGradient5647-3-0-4-2-65);fill-opacity:1;fill-rule:nonzero;stroke:none;stroke-width:2.75;stroke-linecap:butt;stroke-linejoin:miter;stroke-miterlimit:4;stroke-dasharray:none;stroke-dashoffset:0;stroke-opacity:1;marker:none;color-rendering:auto;image-rendering:auto;shape-rendering:auto;text-rendering:auto;enable-background:accumulate" id="rect3780-35-1-4-6-7-7-5-0-4-7-8-0-1-8-4-3-7-0-2-1" d="m 127,360.36203 0,10 18,0 0,-10 -18,0 z m 0,12 0,10 18,0 0,-10 -18,0 z m 0,12 0,10 18,0 0,-10 -18,0 z m 0,12 0,10 18,0 0,-10 -18,0 z m 0,12 0,10 18,0 0,-10 -18,0 z m 0,12 0,10 18,0 0,-10 -18,0 z m 0,12 0,10 18,0 0,-10 -18,0 z m 0,12 0,10 18,0 0,-10 -18,0 z m 0,12 0,10 18,0 0,-10 -18,0 z"/><path style="color:#000;clip-rule:nonzero;display:inline;overflow:visible;visibility:visible;opacity:.45;isolation:auto;mix-blend-mode:normal;color-interpolation:sRGB;color-interpolation-filters:linearRGB;solid-color:#000;solid-opacity:1;fill:url(#linearGradient5647-3-0-4-2-6-3);fill-opacity:1;fill-rule:nonzero;stroke:none;stroke-width:2.75;stroke-linecap:butt;stroke-linejoin:miter;stroke-miterlimit:4;stroke-dasharray:none;stroke-dashoffset:0;stroke-opacity:1;marker:none;color-rendering:auto;image-rendering:auto;shape-rendering:auto;text-rendering:auto;enable-background:accumulate" id="rect3780-35-1-4-6-7-7-5-0-4-7-8-0-1-8-4-3-7-0-2-5-1" d="m 147,360.36203 0,10 18,0 0,-10 -18,0 z m 0,12 0,10 18,0 0,-10 -18,0 z m 0,12 0,10 18,0 0,-10 -18,0 z m 0,12 0,10 18,0 0,-10 -18,0 z m 0,12 0,10 18,0 0,-10 -18,0 z m 0,12 0,10 18,0 0,-10 -18,0 z m 0,12 0,10 18,0 0,-10 -18,0 z m 0,12 0,10 18,0 0,-10 -18,0 z m 0,12 0,10 18,0 0,-10 -18,0 z"/><path style="color:#000;clip-rule:nonzero;display:inline;overflow:visible;visibility:visible;opacity:.4;isolation:auto;mix-blend-mode:normal;color-interpolation:sRGB;color-interpolation-filters:linearRGB;solid-color:#000;solid-opacity:1;fill:url(#linearGradient5647-3-0-4-2-6-0-94);fill-opacity:1;fill-rule:nonzero;stroke:none;stroke-width:2.75;stroke-linecap:butt;stroke-linejoin:miter;stroke-miterlimit:4;stroke-dasharray:none;stroke-dashoffset:0;stroke-opacity:1;marker:none;color-rendering:auto;image-rendering:auto;shape-rendering:auto;text-rendering:auto;enable-background:accumulate" id="rect3780-35-1-4-6-7-7-5-0-4-7-8-0-1-8-4-3-7-0-2-5-4-6" d="m 167,360.36203 0,10 18,0 0,-10 -18,0 z m 0,12 0,10 18,0 0,-10 -18,0 z m 0,12 0,10 18,0 0,-10 -18,0 z m 0,12 0,10 18,0 0,-10 -18,0 z m 0,12 0,10 18,0 0,-10 -18,0 z m 0,12 0,10 18,0 0,-10 -18,0 z m 0,12 0,10 18,0 0,-10 -18,0 z m 0,12 0,10 18,0 0,-10 -18,0 z m 0,12 0,10 18,0 0,-10 -18,0 z"/><path style="color:#000;clip-rule:nonzero;display:inline;overflow:visible;visibility:visible;opacity:.35;isolation:auto;mix-blend-mode:normal;color-interpolation:sRGB;color-interpolation-filters:linearRGB;solid-color:#000;solid-opacity:1;fill:url(#linearGradient5647-3-0-4-2-6-0-9-05);fill-opacity:1;fill-rule:nonzero;stroke:none;stroke-width:2.75;stroke-linecap:butt;stroke-linejoin:miter;stroke-miterlimit:4;stroke-dasharray:none;stroke-dashoffset:0;stroke-opacity:1;marker:none;color-rendering:auto;image-rendering:auto;shape-rendering:auto;text-rendering:auto;enable-background:accumulate" id="rect3780-35-1-4-6-7-7-5-0-4-7-8-0-1-8-4-3-7-0-2-5-4-1-1" d="m 187,360.36203 0,10 18,0 0,-10 -18,0 z m 0,12 0,10 18,0 0,-10 -18,0 z m 0,12 0,10 18,0 0,-10 -18,0 z m 0,12 0,10 18,0 0,-10 -18,0 z m 0,12 0,10 18,0 0,-10 -18,0 z m 0,12 0,10 18,0 0,-10 -18,0 z m 0,12 0,10 18,0 0,-10 -18,0 z m 0,12 0,10 18,0 0,-10 -18,0 z m 0,12 0,10 18,0 0,-10 -18,0 z"/><path style="color:#000;clip-rule:nonzero;display:inline;overflow:visible;visibility:visible;opacity:.4;isolation:auto;mix-blend-mode:normal;color-interpolation:sRGB;color-interpolation-filters:linearRGB;solid-color:#000;solid-opacity:1;fill:url(#linearGradient5647-3-0-4-2-6-0-9-0-3);fill-opacity:1;fill-rule:nonzero;stroke:none;stroke-width:2.75;stroke-linecap:butt;stroke-linejoin:miter;stroke-miterlimit:4;stroke-dasharray:none;stroke-dashoffset:0;stroke-opacity:1;marker:none;color-rendering:auto;image-rendering:auto;shape-rendering:auto;text-rendering:auto;enable-background:accumulate" id="rect3780-35-1-4-6-7-7-5-0-4-7-8-0-1-8-4-3-7-0-2-5-4-1-6-8" d="m 207,360.36203 0,10 18,0 0,-10 -18,0 z m 0,12 0,10 18,0 0,-10 -18,0 z m 0,12 0,10 18,0 0,-10 -18,0 z m 0,12 0,10 18,0 0,-10 -18,0 z m 0,12 0,10 18,0 0,-10 -18,0 z m 0,12 0,10 18,0 0,-10 -18,0 z m 0,12 0,10 18,0 0,-10 -18,0 z m 0,12 0,10 18,0 0,-10 -18,0 z m 0,12 0,10 18,0 0,-10 -18,0 z"/><path style="color:#000;clip-rule:nonzero;display:inline;overflow:visible;visibility:visible;opacity:.4;isolation:auto;mix-blend-mode:normal;color-interpolation:sRGB;color-interpolation-filters:linearRGB;solid-color:#000;solid-opacity:1;fill:url(#linearGradient5647-3-0-4-2-6-0-9-0-5-3);fill-opacity:1;fill-rule:nonzero;stroke:none;stroke-width:2.75;stroke-linecap:butt;stroke-linejoin:miter;stroke-miterlimit:4;stroke-dasharray:none;stroke-dashoffset:0;stroke-opacity:1;marker:none;color-rendering:auto;image-rendering:auto;shape-rendering:auto;text-rendering:auto;enable-background:accumulate" id="rect3780-35-1-4-6-7-7-5-0-4-7-8-0-1-8-4-3-7-0-2-5-4-1-6-7-6" d="m 227,360.36203 0,10 18,0 0,-10 -18,0 z m 0,12 0,10 18,0 0,-10 -18,0 z m 0,12 0,10 18,0 0,-10 -18,0 z m 0,12 0,10 18,0 0,-10 -18,0 z m 0,12 0,10 18,0 0,-10 -18,0 z m 0,12 0,10 18,0 0,-10 -18,0 z m 0,12 0,10 18,0 0,-10 -18,0 z m 0,12 0,10 18,0 0,-10 -18,0 z m 0,12 0,10 18,0 0,-10 -18,0 z"/><path style="color:#000;clip-rule:nonzero;display:inline;overflow:visible;visibility:visible;opacity:.3;isolation:auto;mix-blend-mode:normal;color-interpolation:sRGB;color-interpolation-filters:linearRGB;solid-color:#000;solid-opacity:1;fill:url(#linearGradient5647-3-0-4-2-6-0-9-0-0-8);fill-opacity:1;fill-rule:nonzero;stroke:none;stroke-width:2.75;stroke-linecap:butt;stroke-linejoin:miter;stroke-miterlimit:4;stroke-dasharray:none;stroke-dashoffset:0;stroke-opacity:1;marker:none;color-rendering:auto;image-rendering:auto;shape-rendering:auto;text-rendering:auto;enable-background:accumulate" id="rect3780-35-1-4-6-7-7-5-0-4-7-8-0-1-8-4-3-7-0-2-5-4-1-6-6-0" d="m 247,360.36203 0,10 18,0 0,-10 -18,0 z m 0,12 0,10 18,0 0,-10 -18,0 z m 0,12 0,10 18,0 0,-10 -18,0 z m 0,12 0,10 18,0 0,-10 -18,0 z m 0,12 0,10 18,0 0,-10 -18,0 z m 0,12 0,10 18,0 0,-10 -18,0 z m 0,12 0,10 18,0 0,-10 -18,0 z m 0,12 0,10 18,0 0,-10 -18,0 z m 0,12 0,10 18,0 0,-10 -18,0 z"/><path style="color:#000;clip-rule:nonzero;display:inline;overflow:visible;visibility:visible;opacity:.3;isolation:auto;mix-blend-mode:normal;color-interpolation:sRGB;color-interpolation-filters:linearRGB;solid-color:#000;solid-opacity:1;fill:url(#linearGradient5647-35-4);fill-opacity:1;fill-rule:nonzero;stroke:none;stroke-width:2.75;stroke-linecap:butt;stroke-linejoin:miter;stroke-miterlimit:4;stroke-dasharray:none;stroke-dashoffset:0;stroke-opacity:1;marker:none;color-rendering:auto;image-rendering:auto;shape-rendering:auto;text-rendering:auto;enable-background:accumulate" id="rect3780-35-1-4-6-7-7-5-0-4-7-8-0-1-8-4-7-9" d="m 47,360.36203 0,10 18,0 0,-10 -18,0 z m 0,12 0,10 18,0 0,-10 -18,0 z m 0,12 0,10 18,0 0,-10 -18,0 z m 0,12 0,10 18,0 0,-10 -18,0 z m 0,12 0,10 18,0 0,-10 -18,0 z m 0,12 0,10 18,0 0,-10 -18,0 z m 0,12 0,10 18,0 0,-10 -18,0 z m 0,12 0,10 18,0 0,-10 -18,0 z m 0,12 0,10 18,0 0,-10 -18,0 z"/></g></svg>