<svg xmlns="http://www.w3.org/2000/svg" xmlns:svg="http://www.w3.org/2000/svg" id="svg3926" width="32" height="32" version="1.1" viewBox="0 0 30 30"><metadata id="metadata3931"/><path style="color:#000;clip-rule:nonzero;display:inline;overflow:visible;visibility:visible;opacity:1;isolation:auto;mix-blend-mode:normal;color-interpolation:sRGB;color-interpolation-filters:linearRGB;solid-color:#000;solid-opacity:1;fill:#ccc;fill-opacity:1;fill-rule:nonzero;stroke:none;stroke-width:2.75;stroke-linecap:butt;stroke-linejoin:miter;stroke-miterlimit:4;stroke-dasharray:none;stroke-dashoffset:0;stroke-opacity:1;marker:none;color-rendering:auto;image-rendering:auto;shape-rendering:auto;text-rendering:auto;enable-background:accumulate" id="rect4825" d="M 13 5 L 13 6 L 17 6 L 17 5 L 13 5 z M 5 13 L 5 17 L 6 17 L 6 13 L 5 13 z M 24 13 L 24 17 L 25 17 L 25 13 L 24 13 z M 5 22 L 5 24 L 5 25 L 8 25 L 8 24 L 6 24 L 6 22 L 5 22 z M 13 24 L 13 25 L 17 25 L 17 24 L 13 24 z"/><path style="color:#000;clip-rule:nonzero;display:inline;overflow:visible;visibility:visible;opacity:1;isolation:auto;mix-blend-mode:normal;color-interpolation:sRGB;color-interpolation-filters:linearRGB;solid-color:#000;solid-opacity:1;fill:#fe5498;fill-opacity:1;fill-rule:nonzero;stroke:none;stroke-width:2.75;stroke-linecap:butt;stroke-linejoin:miter;stroke-miterlimit:4;stroke-dasharray:none;stroke-dashoffset:0;stroke-opacity:1;marker:none;color-rendering:auto;image-rendering:auto;shape-rendering:auto;text-rendering:auto;enable-background:accumulate" id="rect3355" d="M 0 0 L 0 10 L 10 10 L 10 0 L 0 0 z M 25 0 A 5 5 0 0 0 20 5 A 5 5 0 0 0 25 10 A 5 5 0 0 0 30 5 A 5 5 0 0 0 25 0 z M 2 2 L 8 2 L 8 8 L 2 8 L 2 2 z M 25 2 A 3 3 0 0 1 28 5 A 3 3 0 0 1 25 8 A 3 3 0 0 1 22 5 A 3 3 0 0 1 25 2 z M 20 20 L 20 30 L 30 30 L 30 20 L 20 20 z M 22 22 L 28 22 L 28 28 L 22 28 L 22 22 z"/></svg>