<svg xmlns="http://www.w3.org/2000/svg" xmlns:svg="http://www.w3.org/2000/svg" id="svg3926" width="32" height="32" version="1.1" viewBox="0 0 30 30"><metadata id="metadata3931"/><path style="color:#000;clip-rule:nonzero;display:inline;overflow:visible;visibility:visible;opacity:1;isolation:auto;mix-blend-mode:normal;color-interpolation:sRGB;color-interpolation-filters:linearRGB;solid-color:#000;solid-opacity:1;fill:#ccc;fill-opacity:1;fill-rule:nonzero;stroke:none;stroke-width:2.75;stroke-linecap:butt;stroke-linejoin:miter;stroke-miterlimit:4;stroke-dasharray:none;stroke-dashoffset:0;stroke-opacity:1;marker:none;color-rendering:auto;image-rendering:auto;shape-rendering:auto;text-rendering:auto;enable-background:accumulate" id="rect4825" d="m 17,5 0,1 -4,0 0,-1 4,0 z m 8,8 0,4 -1,0 0,-4 1,0 z m -19,0 0,4 -1,0 0,-4 1,0 z m 19,9 0,2 0,1 -3,0 0,-1 2,0 0,-2 1,0 z m -8,2 0,1 -4,0 0,-1 4,0 z"/><path style="color:#000;clip-rule:nonzero;display:inline;overflow:visible;visibility:visible;opacity:1;isolation:auto;mix-blend-mode:normal;color-interpolation:sRGB;color-interpolation-filters:linearRGB;solid-color:#000;solid-opacity:1;fill:#fe5498;fill-opacity:1;fill-rule:nonzero;stroke:none;stroke-width:2.75;stroke-linecap:butt;stroke-linejoin:miter;stroke-miterlimit:4;stroke-dasharray:none;stroke-dashoffset:0;stroke-opacity:1;marker:none;color-rendering:auto;image-rendering:auto;shape-rendering:auto;text-rendering:auto;enable-background:accumulate" id="rect3355" d="M 30,0 30,10 20,10 20,0 30,0 Z M 5,0 A 5,5 0 0 1 10,5 5,5 0 0 1 5,10 5,5 0 0 1 0,5 5,5 0 0 1 5,0 Z m 23,2 -6,0 0,6 6,0 0,-6 z M 5,2 A 3,3 0 0 0 2,5 3,3 0 0 0 5,8 3,3 0 0 0 8,5 3,3 0 0 0 5,2 Z m 5,18 0,10 -10,0 0,-10 10,0 z m -2,2 -6,0 0,6 6,0 0,-6 z"/></svg>