<svg xmlns="http://www.w3.org/2000/svg" xmlns:svg="http://www.w3.org/2000/svg" id="svg3926" width="64" height="64" version="1.1" viewBox="0 0 60 60"><metadata id="metadata3931"/><path id="rect4825" d="m 34,10 0,2 -8,0 0,-2 8,0 z m 16,16 0,8 -2,0 0,-8 2,0 z m -38,0 0,8 -2,0 0,-8 2,0 z m 38,18 0,4 0,2 -6,0 0,-2 4,0 0,-4 2,0 z m -16,4 0,2 -8,0 0,-2 8,0 z" style="color:#000;clip-rule:nonzero;display:inline;overflow:visible;visibility:visible;opacity:1;isolation:auto;mix-blend-mode:normal;color-interpolation:sRGB;color-interpolation-filters:linearRGB;solid-color:#000;solid-opacity:1;fill:#ccc;fill-opacity:1;fill-rule:nonzero;stroke:none;stroke-width:2.75;stroke-linecap:butt;stroke-linejoin:miter;stroke-miterlimit:4;stroke-dasharray:none;stroke-dashoffset:0;stroke-opacity:1;marker:none;color-rendering:auto;image-rendering:auto;shape-rendering:auto;text-rendering:auto;enable-background:accumulate"/><path id="rect3355" d="M 60,0 60,20 40,20 40,0 60,0 Z M 10,0 A 10,10 0 0 1 20,10 10,10 0 0 1 10,20 10,10 0 0 1 0,10 10,10 0 0 1 10,0 Z M 56,4 44,4 44,16 56,16 56,4 Z M 10,4 a 6,6 0 0 0 -6,6 6,6 0 0 0 6,6 6,6 0 0 0 6,-6 6,6 0 0 0 -6,-6 z m 10,36 0,20 -20,0 0,-20 20,0 z m -4,4 -12,0 0,12 12,0 0,-12 z" style="color:#000;clip-rule:nonzero;display:inline;overflow:visible;visibility:visible;opacity:1;isolation:auto;mix-blend-mode:normal;color-interpolation:sRGB;color-interpolation-filters:linearRGB;solid-color:#000;solid-opacity:1;fill:#fe5498;fill-opacity:1;fill-rule:nonzero;stroke:none;stroke-width:2.75;stroke-linecap:butt;stroke-linejoin:miter;stroke-miterlimit:4;stroke-dasharray:none;stroke-dashoffset:0;stroke-opacity:1;marker:none;color-rendering:auto;image-rendering:auto;shape-rendering:auto;text-rendering:auto;enable-background:accumulate"/></svg>