<svg xmlns="http://www.w3.org/2000/svg" xmlns:osb="http://www.openswatchbook.org/uri/2009/osb" xmlns:svg="http://www.w3.org/2000/svg" xmlns:xlink="http://www.w3.org/1999/xlink" id="svg11300" width="32" height="32" version="1.0" viewBox="0 0 32 32" style="display:inline;enable-background:new"><metadata id="metadata93"/><title id="title4162">elementary Icon Template</title><defs id="defs3"><linearGradient id="linearGradient4161" x1="24" x2="24" y1="5" y2="43" gradientTransform="matrix(.67568 0 0 .67568 123.78 93.784)" gradientUnits="userSpaceOnUse"><stop id="stop3926-0-4" offset="0" stop-color="#fff"/><stop id="stop3928-6-8" offset=".063" stop-color="#fff" stop-opacity=".235"/><stop id="stop3930-2-1" offset=".951" stop-color="#fff" stop-opacity=".157"/><stop id="stop3932-9-0" offset="1" stop-color="#fff" stop-opacity=".392"/></linearGradient><radialGradient id="radialGradient5600-7" cx="7.9" cy="10.028" r="12.672" fx="6.633" gradientTransform="matrix(6.0103e-7 3.1566 -2.8409 5.4093e-7 168.49 67.11)" gradientUnits="userSpaceOnUse"><stop id="stop3750-1-0-7-6-6-1-3-9-5-1" offset="0" stop-color="#3cb0e3"/><stop id="stop7287" offset=".609" stop-color="#1da1f2"/><stop id="stop3756-1-6-2-6-6-1-96-6-2-3" offset="1" stop-color="#1e96c8"/></radialGradient><radialGradient id="radialGradient2976" cx="4.993" cy="43.5" r="2.5" gradientTransform="matrix(1.4765 0 0 0.6 142.94 97.4)" gradientUnits="userSpaceOnUse" xlink:href="#linearGradient3688-166-749-6"/><linearGradient id="linearGradient3688-166-749-6"><stop id="stop2883-8" offset="0" stop-color="#181818"/><stop id="stop2885-3" offset="1" stop-color="#181818" stop-opacity="0"/></linearGradient><radialGradient id="radialGradient2978" cx="4.993" cy="43.5" r="2.5" gradientTransform="matrix(1.4765 0 0 0.6 -137.06 -149.6)" gradientUnits="userSpaceOnUse" xlink:href="#linearGradient3688-166-749-6"/><linearGradient id="linearGradient2980" x1="25.058" x2="25.058" y1="47.028" y2="39.999" gradientTransform="matrix(.73684 0 0 .42857 122.32 104.86)" gradientUnits="userSpaceOnUse"><stop id="stop3228" offset="0" stop-color="#181818" stop-opacity="0"/><stop id="stop3230" offset=".5" stop-color="#181818"/><stop id="stop3232" offset="1" stop-color="#181818" stop-opacity="0"/></linearGradient><linearGradient id="w-6" x1="123.64" x2="146.53" y1="131.03" y2="174.71" gradientTransform="matrix(.16177 0 0 .13569 122.89 91.478)" gradientUnits="userSpaceOnUse"><stop id="stop12-1" offset="0" stop-color="#eff7fc"/><stop id="stop14-2" offset="1" stop-color="#fff"/></linearGradient></defs><g id="g153" transform="translate(-124,-94)"><rect id="rect2801-0-3" width="3.684" height="3" x="150.32" y="122" fill="url(#radialGradient2976)" opacity=".4"/><rect id="rect3696-2-6" width="3.684" height="3" x="-129.68" y="-125" fill="url(#radialGradient2978)" opacity=".4" transform="scale(-1)"/><rect id="rect3700-1-7" width="20.632" height="3" x="129.68" y="122" fill="url(#linearGradient2980)" opacity=".4"/><rect id="rect5505-5" width="27" height="27" x="126.5" y="96.548" fill="url(#radialGradient5600-7)" rx="2.16" ry="2.16" style="color:#000;enable-background:accumulate"/><rect id="rect6741-7-4-3" width="25" height="25" x="127.5" y="97.5" fill="none" stroke="url(#linearGradient4161)" stroke-linecap="round" stroke-linejoin="round" opacity=".5" rx="1.087" ry="1.087"/><rect id="rect5505-6" width="27" height="27" x="126.5" y="96.5" fill="none" stroke="#042c45" stroke-linecap="round" stroke-linejoin="round" stroke-opacity=".4" rx="2.16" ry="2.16" style="color-rendering:auto;color:#000;isolation:auto;mix-blend-mode:normal;shape-rendering:auto;solid-color:#000;image-rendering:auto;enable-background:accumulate"/><path id="path18-7" fill="#541700" d="m147.31 104.1c-0.16396-0.0182-0.34444 0.0116-0.5265 0.0938l-15.944 6.1113c-1.0884 0.43399-1.082 1.0376-0.19841 1.3066l4.0902 1.2695 1.4066 4.6035c0.18493 0.50763 0.0943 0.70899 0.63061 0.70899 0.41382 0 0.59609-0.1869 0.82708-0.41016l1.9881-1.9238 4.1373 3.0391c0.76122 0.41756 1.3113 0.20087 1.5009-0.70312l2.715-12.721c0.2085-0.83107-0.13483-1.3204-0.6267-1.375z" opacity=".15"/><path id="path4424" fill="#541700" stroke="#000" stroke-width="2" d="m147.31 104.1c-0.16396-0.0182-0.34444 0.0116-0.5265 0.0938l-15.944 6.1113c-1.0884 0.43399-1.082 1.0376-0.19841 1.3066l4.0902 1.2695 1.4066 4.6035c0.18493 0.50763 0.0943 0.70899 0.63061 0.70899 0.41382 0 0.59609-0.1869 0.82708-0.41016l1.9881-1.9238 4.1373 3.0391c0.76122 0.41756 1.3113 0.20087 1.5009-0.70312l2.715-12.721c0.2085-0.83107-0.13483-1.3204-0.6267-1.375z" opacity=".05"/><g id="g4329" transform="matrix(.93102 0 0 .92561 8.8387 8.4183)"><path id="path18" fill="#c8daea" d="m137.41 117.41c-0.57598 0-0.47811-0.21748-0.67675-0.7659l-1.6938-5.5744 13.038-7.7347"/><path id="path20" fill="#a9c9dd" d="m137.41 117.41c0.44447 0 0.64086-0.20327 0.88895-0.44447l2.3705-2.305-2.9569-1.7831"/><path id="path22" fill="url(#w-6)" d="m137.71 112.87 7.1649 5.2936c0.81761 0.45112 1.4077 0.21756 1.6114-0.75909l2.9165-13.744c0.2986-1.1972-0.45634-1.7401-1.2385-1.385l-17.126 6.6036c-1.169 0.46887-1.1622 1.121-0.21308 1.4116l4.3948 1.3717 10.174-6.419c0.48032-0.29126 0.92114-0.13467 0.55933 0.18644"/></g></g></svg>