<svg xmlns="http://www.w3.org/2000/svg" xmlns:osb="http://www.openswatchbook.org/uri/2009/osb" xmlns:svg="http://www.w3.org/2000/svg" xmlns:xlink="http://www.w3.org/1999/xlink" id="svg11300" width="32" height="32" version="1.0" viewBox="0 0 32 32" style="display:inline;enable-background:new"><metadata id="metadata93"/><title id="title4162">elementary Icon Template</title><defs id="defs3"><linearGradient id="linearGradient6381"><stop id="stop6377" offset="0" style="stop-color:#fff;stop-opacity:1"/><stop id="stop6379" offset="1" style="stop-color:#d5dde8;stop-opacity:1"/></linearGradient><linearGradient id="linearGradient6097"><stop id="stop6091" offset="0" style="stop-color:#597aa0;stop-opacity:1"/><stop id="stop6093" offset="1" style="stop-color:#314358;stop-opacity:1"/></linearGradient><linearGradient id="linearGradient4712"><stop id="stop4708" offset="0" style="stop-color:#000;stop-opacity:1"/><stop id="stop4710" offset="1" style="stop-color:#000;stop-opacity:0"/></linearGradient><linearGradient id="linearGradient4187"><stop id="stop4189" offset="0" style="stop-color:#fff;stop-opacity:1"/><stop id="stop4191" offset=".021" style="stop-color:#fff;stop-opacity:.23529412"/><stop id="stop4193" offset=".977" style="stop-color:#fff;stop-opacity:.15686275"/><stop id="stop4195" offset="1" style="stop-color:#fff;stop-opacity:.39215687"/></linearGradient><linearGradient id="linearGradient3702-501-757-6-946"><stop id="stop3228" offset="0" style="stop-color:#181818;stop-opacity:0"/><stop id="stop3230" offset=".5" style="stop-color:#181818;stop-opacity:1"/><stop id="stop3232" offset="1" style="stop-color:#181818;stop-opacity:0"/></linearGradient><radialGradient id="radialGradient5994" cx="4.993" cy="43.5" r="2.5" fx="4.993" fy="43.5" gradientTransform="matrix(1.4764724,0,0,0.59999988,262.93862,97.40001)" gradientUnits="userSpaceOnUse" xlink:href="#linearGradient4712"/><radialGradient id="radialGradient5996" cx="4.993" cy="43.5" r="2.5" fx="4.993" fy="43.5" gradientTransform="matrix(1.4764724,0,0,0.59999988,-257.06138,-149.6)" gradientUnits="userSpaceOnUse" xlink:href="#linearGradient4712"/><linearGradient id="linearGradient5998" x1="25.058" x2="25.058" y1="47.028" y2="39.999" gradientTransform="matrix(0.73684208,0,0,0.42857134,242.31579,104.85715)" gradientUnits="userSpaceOnUse" xlink:href="#linearGradient3702-501-757-6-946"/><radialGradient id="radialGradient6000" cx="7.532" cy="11.379" r="7.322" fx="7.532" fy="11.379" gradientTransform="matrix(2.3650123e-7,5.4633001,-4.91697,2.2102235e-7,315.94778,50.85034)" gradientUnits="userSpaceOnUse" xlink:href="#linearGradient6097"/><linearGradient id="linearGradient6002" x1="38.546" x2="38.546" y1="6.374" y2="41.679" gradientTransform="matrix(0.67567568,0,0,0.67567568,243.78378,93.78379)" gradientUnits="userSpaceOnUse" xlink:href="#linearGradient4187"/><linearGradient id="linearGradient6383" x1="202" x2="202" y1="180" y2="204" gradientTransform="translate(64,-82)" gradientUnits="userSpaceOnUse" xlink:href="#linearGradient6381"/><linearGradient id="linearGradient4526" osb:paint="solid"><stop id="stop4528" offset="0" style="stop-color:#fff;stop-opacity:1"/></linearGradient></defs><g id="g153" transform="translate(-244,-94)"><rect id="rect5972" width="3.684" height="3" x="270.316" y="122" style="opacity:.4;fill:url(#radialGradient5994);fill-opacity:1;stroke:none;stroke-width:.5619514"/><rect id="rect5974" width="3.684" height="3" x="-249.684" y="-125" transform="scale(-1)" style="opacity:.4;fill:url(#radialGradient5996);fill-opacity:1;stroke:none;stroke-width:.5619514"/><rect id="rect5976" width="20.632" height="3" x="249.684" y="122" style="opacity:.4;fill:url(#linearGradient5998);fill-opacity:1;stroke:none;stroke-width:.5619514"/><rect id="rect5978" width="27" height="27" x="246.5" y="96.5" rx="2.16" ry="2.16" style="color:#000;display:inline;overflow:visible;visibility:visible;fill:url(#radialGradient6000);fill-opacity:1;fill-rule:nonzero;stroke:#141c24;stroke-width:.99999994;stroke-opacity:.49803922;marker:none;enable-background:accumulate"/><rect id="rect5982" width="25" height="25" x="247.5" y="97.5" rx="1.087" ry="1.087" style="opacity:.3;fill:none;stroke:url(#linearGradient6002);stroke-width:1;stroke-linecap:round;stroke-linejoin:round;stroke-miterlimit:4;stroke-dasharray:none;stroke-dashoffset:0;stroke-opacity:1"/><path id="path6134" d="m 263.74201,116.35993 c -0.34859,0.16625 -0.4407,0.3109 -0.93781,0.32334 -1.50082,0.0402 -1.79211,-1.0542 -1.8042,-1.84752 V 109 h 3 v -2.83845 h -2.98697 L 261,102 h -2.74534 c -0.0452,0 -0.1241,0.0396 -0.13526,0.13995 -0.16061,1.46149 -0.17262,3.41296 -3.01671,4.43864 V 109 H 257 v 6.1248 c 0,2.09726 0.88823,4.54626 4.97202,4.47594 1.37789,-0.0236 2.33366,-0.60031 2.67156,-1.09824 l -0.90157,-2.14257" style="opacity:.05;fill:#141c24;fill-opacity:1;stroke:#141c24;stroke-width:2;stroke-linejoin:round;stroke-miterlimit:4;stroke-dasharray:none;stroke-opacity:1"/><path id="path6132" d="m 263.74201,116.35993 c -0.34859,0.16625 -0.4407,0.3109 -0.93781,0.32334 -1.50082,0.0402 -1.79211,-1.0542 -1.8042,-1.84752 V 109 h 3 v -2.83845 h -2.98697 L 261,102 h -2.74534 c -0.0452,0 -0.1241,0.0396 -0.13526,0.13995 -0.16061,1.46149 -0.17262,3.41296 -3.01671,4.43864 V 109 H 257 v 6.1248 c 0,2.09726 0.88823,4.54626 4.97202,4.47594 1.37789,-0.0236 2.33366,-0.60031 2.67156,-1.09824 l -0.90157,-2.14257" style="opacity:.15;fill:#141c24;fill-opacity:1;stroke-width:1"/><path id="path6064" d="m 263.74201,115.35993 c -0.34859,0.16625 -0.4407,0.3109 -0.93781,0.32334 -1.50082,0.0402 -1.79211,-1.0542 -1.8042,-1.84752 V 108 h 3 v -2.83845 h -2.98697 L 261,101 h -2.74534 c -0.0452,0 -0.1241,0.0396 -0.13526,0.13995 -0.16061,1.46149 -0.17262,3.41296 -3.01671,4.43864 V 108 H 257 v 6.1248 c 0,2.09726 0.88823,4.54626 4.97202,4.47594 1.37789,-0.0236 2.33366,-0.60031 2.67156,-1.09824 l -0.90157,-2.14257" style="fill:url(#linearGradient6383);fill-opacity:1;stroke-width:1"/></g></svg>