<svg xmlns="http://www.w3.org/2000/svg" xmlns:osb="http://www.openswatchbook.org/uri/2009/osb" xmlns:svg="http://www.w3.org/2000/svg" xmlns:xlink="http://www.w3.org/1999/xlink" id="svg11300" width="32" height="32" version="1.0" viewBox="0 0 32 32" style="display:inline;enable-background:new"><metadata id="metadata93"/><title id="title4162">elementary Icon Template</title><defs id="defs3"><linearGradient id="linearGradient3702-501-757-6-946"><stop id="stop3228" offset="0" style="stop-color:#181818;stop-opacity:0"/><stop id="stop3230" offset=".5" style="stop-color:#181818;stop-opacity:1"/><stop id="stop3232" offset="1" style="stop-color:#181818;stop-opacity:0"/></linearGradient><linearGradient id="linearGradient3688-166-749-6"><stop id="stop2883-8" offset="0" style="stop-color:#181818;stop-opacity:1"/><stop id="stop2885-3" offset="1" style="stop-color:#181818;stop-opacity:0"/></linearGradient><linearGradient id="linearGradient3483-1" x1="38.546" x2="38.546" y1="6.374" y2="41.679" gradientTransform="matrix(0.67567568,0,0,0.67567568,163.78378,93.78379)" gradientUnits="userSpaceOnUse" xlink:href="#linearGradient3924-0"/><linearGradient id="linearGradient3924-0"><stop id="stop3926-6" offset="0" style="stop-color:#fff;stop-opacity:1"/><stop id="stop3928-3" offset=".038" style="stop-color:#fff;stop-opacity:.23529412"/><stop id="stop3930-2" offset=".962" style="stop-color:#fff;stop-opacity:.15686275"/><stop id="stop3932-62" offset="1" style="stop-color:#fff;stop-opacity:.39215687"/></linearGradient><radialGradient id="radialGradient3493-2" cx="4.993" cy="43.5" r="2.5" fx="4.993" fy="43.5" gradientTransform="matrix(1.4764724,0,0,0.59999988,182.93862,97.40001)" gradientUnits="userSpaceOnUse" xlink:href="#linearGradient3688-166-749-6"/><radialGradient id="radialGradient3495-9" cx="4.993" cy="43.5" r="2.5" fx="4.993" fy="43.5" gradientTransform="matrix(1.4764724,0,0,0.59999988,-177.06138,-149.6)" gradientUnits="userSpaceOnUse" xlink:href="#linearGradient3688-166-749-6"/><linearGradient id="linearGradient3497-3" x1="25.058" x2="25.058" y1="47.028" y2="39.999" gradientTransform="matrix(0.73684208,0,0,0.42857134,162.31579,104.85715)" gradientUnits="userSpaceOnUse" xlink:href="#linearGradient3702-501-757-6-946"/><linearGradient id="linearGradient5803-4-0-6"><stop id="stop5805-6-5-8" offset="0" style="stop-color:#fff;stop-opacity:1"/><stop id="stop5807-5-1-5" offset="1" style="stop-color:#ecf3fe;stop-opacity:1"/></linearGradient><linearGradient id="linearGradient2867-449-88-871-390-598-476-591-434-148-57-177-8-3-3-6-4-8-8-8-02"><stop id="stop3750-1-0-7-6-6-1-3-9-8" offset="0" style="stop-color:#2a81c2;stop-opacity:1"/><stop id="stop3752-3-7-4-0-32-8-923-0-9" offset=".262" style="stop-color:#4c80ce;stop-opacity:1"/><stop id="stop3754-1-8-5-2-7-6-7-1-35" offset=".705" style="stop-color:#30427c;stop-opacity:1"/><stop id="stop3756-1-6-2-6-6-1-96-6-7" offset="1" style="stop-color:#363b6e;stop-opacity:1"/></linearGradient><linearGradient id="linearGradient3148-1-3-41-7" x1="167.983" x2="167.983" y1="8.508" y2="54.78" gradientTransform="matrix(0.51343308,0,0,0.50181585,96.591358,93.45162)" gradientUnits="userSpaceOnUse" xlink:href="#linearGradient5803-4-0-6"/><radialGradient id="radialGradient3157-9-5" cx="6.73" cy="9.957" r="12.672" fx="6.2" fy="9.957" gradientTransform="matrix(0,6.5752285,-8.07228,0,258.45191,35.38856)" gradientUnits="userSpaceOnUse" xlink:href="#linearGradient2867-449-88-871-390-598-476-591-434-148-57-177-8-3-3-6-4-8-8-8-02"/><linearGradient id="linearGradient4526" osb:paint="solid"><stop id="stop4528" offset="0" style="stop-color:#fff;stop-opacity:1"/></linearGradient></defs><g id="g153" transform="translate(-164,-94)"><rect id="rect2801-0-6" width="3.684" height="3" x="190.316" y="122" style="opacity:.4;fill:url(#radialGradient3493-2);fill-opacity:1;stroke:none;stroke-width:.5619514"/><rect id="rect3696-2-0" width="3.684" height="3" x="-169.684" y="-125" transform="scale(-1)" style="opacity:.4;fill:url(#radialGradient3495-9);fill-opacity:1;stroke:none;stroke-width:.5619514"/><rect id="rect3700-1-6" width="20.632" height="3" x="169.684" y="122" style="opacity:.4;fill:url(#linearGradient3497-3);fill-opacity:1;stroke:none;stroke-width:.5619514"/><rect id="rect5505-2" width="27" height="27" x="166.5" y="96.5" rx="2.16" ry="2.16" style="color:#000;clip-rule:nonzero;display:inline;overflow:visible;visibility:visible;opacity:1;isolation:auto;mix-blend-mode:normal;color-interpolation:sRGB;color-interpolation-filters:linearRGB;solid-color:#000;solid-opacity:1;fill:url(#radialGradient3157-9-5);fill-opacity:1;fill-rule:nonzero;stroke:none;stroke-width:.99999994;stroke-linecap:butt;stroke-linejoin:miter;stroke-miterlimit:4;stroke-dasharray:none;stroke-dashoffset:0;stroke-opacity:1;marker:none;color-rendering:auto;image-rendering:auto;shape-rendering:auto;text-rendering:auto;enable-background:accumulate"/><rect id="rect5505-6-6" width="27" height="27" x="166.5" y="96.5" rx="2.16" ry="2.16" style="color:#000;clip-rule:nonzero;display:inline;overflow:visible;visibility:visible;opacity:.45;isolation:auto;mix-blend-mode:normal;color-interpolation:sRGB;color-interpolation-filters:linearRGB;solid-color:#000;solid-opacity:1;fill:none;fill-opacity:1;fill-rule:nonzero;stroke:#00152e;stroke-width:1;stroke-linecap:round;stroke-linejoin:round;stroke-miterlimit:4;stroke-dasharray:none;stroke-dashoffset:0;stroke-opacity:1;marker:none;color-rendering:auto;image-rendering:auto;shape-rendering:auto;text-rendering:auto;enable-background:accumulate"/><path id="path4454" d="m 188.99414,99.99609 -2.25195,0.0215 h -0.004 c -1.52863,0.0163 -2.69519,0.25995 -3.62306,0.85156 -0.92786,0.59161 -1.50971,1.46868 -2.00976,2.4668 -0.57116,1.14005 -1.07244,2.36989 -1.07617,4.80859 v 0.002 0.86133 H 178 c -0.55425,4.7e-4 -1.00344,0.44966 -1.00391,1.00391 v 4 c 4.7e-4,0.55654 0.45324,1.00667 1.00977,1.0039 l 1.96289,-0.0176 0.0566,8.50195 h 5.92383 l -0.002,-8.49023 2.99609,-0.0176 c 0.51939,-0.003 0.95124,-0.40052 0.9961,-0.91797 l 0.33984,-4 c 0.0499,-0.58668 -0.41315,-1.09032 -1.00195,-1.08985 h -3.29493 l 0.0332,-0.98047 c 0.0265,-0.78879 0.0874,-1.1973 0.13086,-1.35937 0.0434,-0.16207 0.0113,-0.0819 0.13868,-0.25 0.16146,-0.21313 0.12402,-0.19068 0.32617,-0.25195 0.20113,-0.061 0.69109,-0.12051 1.53711,-0.14649 l 0.875,-0.043 c 0.54509,-0.0132 0.98021,-0.45865 0.98052,-1.0039 V 103.05078 101 c -4.7e-4,-0.55654 -0.45323,-1.00668 -1.00977,-1.00391 z" style="color:#000;clip-rule:nonzero;display:inline;overflow:visible;visibility:visible;opacity:.15;isolation:auto;mix-blend-mode:normal;color-interpolation:sRGB;color-interpolation-filters:linearRGB;solid-color:#000;solid-opacity:1;fill:#042658;fill-opacity:1;fill-rule:nonzero;stroke:none;stroke-width:1;stroke-linecap:butt;stroke-linejoin:miter;stroke-miterlimit:4;stroke-dasharray:none;stroke-dashoffset:0;stroke-opacity:1;marker:none;color-rendering:auto;image-rendering:auto;shape-rendering:auto;text-rendering:auto;enable-background:accumulate"/><path id="path3813-2-1-3" d="m 189,101 -2.25195,0.0215 c -2.85552,0.0305 -3.81091,0.9009 -4.74414,2.76368 -0.55939,1.11655 -0.96715,2.03986 -0.97071,4.36132 v 1.86524 H 178 v 4 l 2.9668,-0.0234 0.0625,9.51172 h 3.91601 l -0.002,-9.48828 3.99414,-0.0234 0.33985,-4 h -4.33203 l 0.0664,-2.01758 c 0.0552,-1.64365 0.22466,-1.85617 0.47266,-2.1836 0.46009,-0.60731 0.8863,-0.74198 2.64063,-0.79492 L 189,104.94922 v -1.89844 z" style="color:#000;clip-rule:nonzero;display:inline;overflow:visible;visibility:visible;opacity:.3;isolation:auto;mix-blend-mode:normal;color-interpolation:sRGB;color-interpolation-filters:linearRGB;solid-color:#000;solid-opacity:1;fill:#042658;fill-opacity:1;fill-rule:nonzero;stroke:none;stroke-width:1;stroke-linecap:butt;stroke-linejoin:miter;stroke-miterlimit:4;stroke-dasharray:none;stroke-dashoffset:0;stroke-opacity:1;marker:none;color-rendering:auto;image-rendering:auto;shape-rendering:auto;text-rendering:auto;enable-background:accumulate"/><path id="path3813-2-1" d="m 186.7478,100.02206 c -2.85551,0.0305 -3.811,0.90085 -4.74424,2.76363 -0.55938,1.11655 -0.96725,2.03989 -0.97081,4.36136 l -3.6e-4,1.86394 H 178 v 4 l 2.96725,-0.022 0.0655,10.01103 h 3.91169 l -3.6e-4,-9.98897 3.99259,-0.022 0.34111,-4 h -4.33334 l 0.0677,-2.01835 c 0.0551,-1.64365 0.22376,-1.85641 0.47176,-2.18383 0.46009,-0.60732 0.88629,-0.74118 2.64062,-0.79412 L 189,103.9486 V 102.05154 100 Z" style="color:#000;display:inline;overflow:visible;visibility:visible;fill:url(#linearGradient3148-1-3-41-7);fill-opacity:1;fill-rule:nonzero;stroke:none;stroke-width:1;marker:none;enable-background:accumulate"/><rect id="rect6741-7-4-1" width="25" height="25" x="167.5" y="97.5" rx="1.087" ry="1.087" style="opacity:.3;fill:none;stroke:url(#linearGradient3483-1);stroke-width:1;stroke-linecap:round;stroke-linejoin:round;stroke-miterlimit:4;stroke-dasharray:none;stroke-dashoffset:0;stroke-opacity:1"/></g></svg>